<?xml version="1.0" encoding="utf-8"?>
<!-- Generator: Adobe Illustrator 23.0.1, SVG Export Plug-In . SVG Version: 6.00 Build 0)  -->
<svg version="1.1" id="Layer_1" xmlns="http://www.w3.org/2000/svg" xmlns:xlink="http://www.w3.org/1999/xlink" x="0px" y="0px"
	 viewBox="0 0 1000 1000" style="enable-background:new 0 0 1000 1000;" xml:space="preserve">
<style type="text/css">
	.st0{fill:#0B0602;}
	.st1{fill:#E9660F;}
	.st2{fill:#FFFFFF;}
</style>
<path class="st0" d="M67.7,602.4c0.3-36.6,9.6-65.3,28.9-90.4c13.6-17.7,30.8-31.3,51-41c4.1-2,5.4-3.5,4.2-8.7
	c-7.7-32.1,2.8-58.2,27.4-79.3c2.6-2.2,2.6-3.9,1.5-6.7c-14.5-35.9-14.4-71.8,0.7-107.4c13.4-31.5,35.4-55.4,66.6-69.5
	c9.7-4.4,15.8-10.8,21.9-18.9c22.7-30,53.5-43,90.7-40c19.6,1.6,37,9.6,52.4,22c20.7,16.6,31.1,38.8,36.4,64c1.9,9,3.8,17.9,4.7,27
	c0.1,1.1-0.2,2.5,1.4,2.6c1.3,0.1,1.8-1.1,2.4-2c11.1-16,23-31.3,37.5-44.3c20.8-18.6,45-29.8,72.7-33.7
	c27.2-3.8,53.3,0.8,78.5,11.1c2,0.8,3,0.4,4.6-0.9c17-13.5,35.6-23.1,57.7-25.5c26.8-2.9,51.4,2.7,73.4,17.8
	c26.3,18,42.1,43,47,74.8c3.6,23.1-0.3,44.9-10.3,65.6c-4.6,9.4-10.3,18.3-18.1,25.5c-3.5,3.2-2.4,4,1.5,5.3
	c17.5,5.8,33.1,15.1,46,28.3c17.4,17.7,28.1,39.2,33.4,63.3c7.1,32.4,5.6,64.2-9,94.5c-12.2,25.4-30.7,45-55.2,58.9
	c-9.4,5.4-19.3,9.5-29.8,12.3c-1.6,0.4-2.6,1.2-3,2.6c-5.9,17-14.9,32.2-26.3,46.1c-1.6,1.9-0.7,3,0.3,4.6
	c11.9,18.1,19,38.1,21.5,59.4c3.5,30.9-2.6,59.9-18.3,86.9c-14.7,25.1-35,43.9-61.2,56.4c-13.4,6.4-27.4,10.3-42.2,12.1
	c-25.4,3-49.8-0.4-73-10.8c-14.6-6.5-28-15.1-39.4-26.6c-4.6-4.6-4.8-4.7-9.3,0.3c-10.3,11.6-22.2,21.2-35.6,29.1
	c-17.5,10.2-36.2,16.8-56.3,19.3c-21.3,2.6-42.2,0.9-62.7-5.1c-2.1-0.6-4.1-0.6-6.2-0.5c-24,0.5-46.7-4.7-67.7-16.2
	c-23-12.6-41.1-30.3-53.8-53.3c-9.3-16.8-14.8-34.6-16.6-53.7c-0.7-7.3-1.5-14.5,0-21.8c1-4.9-2.4-3.8-4.9-3.3
	c-10.4,2.1-20.9,4-31.5,3.5c-28.6-1.4-54.8-9.8-77.9-27.2c-18.1-13.7-32.6-30.4-42.3-51C72.5,638.8,67,618.8,67.7,602.4z
	 M590.3,691.2c0.2-0.5,0.1-0.7-0.5-0.6C590,690.8,590.2,691,590.3,691.2c17.7,10,31.7,23.8,42,41.2c9.6,16.2,20.9,31,34,44.4
	c1,1,1.9,2.2,2.5,3.4c0.4,0.8,0.7,2-0.1,2.6c-0.4,0.3-1.4-0.3-2.1-0.6c-6.4-3-10.9-8.2-14.9-13.7c-9.1-12.4-17.6-25.2-27.5-36.9
	c-2.8-3.3-5.7-6.5-9.1-9.2c-1.2-0.9-2.6-2.6-4.1-1.3c-1.3,1.1,0,2.7,0.6,3.9c0.7,1.6,1.5,3.2,2.4,4.7c10.5,17.8,23.1,34.2,33.6,52
	c6.7,11.4,14,22.5,23.2,32.1c2.5,2.6,5.8,4.6,7.3,8.2c-3-2.1-5.9-4.3-8.9-6.4c-18.9-13-32.5-30.7-42.6-50.7
	c-9.7-19.1-22.8-34.1-41.2-44.7c-5.5-3.2-10.5-7.3-15.7-11c-1-0.7-1.8-2.3-3.1-1.3c-0.5,0.4-0.2,2.1,0,3.2
	c4.1,21.8,2.6,43.3-3.3,64.6c-0.7,2.6-0.1,4.1,1.7,5.8c4.8,4.7,9.5,9.5,14.1,14.4c13.8,14.3,27.6,28.5,41.3,42.8
	c1,1.1,3.2,2.2,2.3,3.7c-0.7,1.2-2.6-0.3-3.9-0.7c-1.8-0.6-3.6-1.3-5.4-2c-20.7-8.3-39.2-20.1-56-34.8c-3.9-3.4-6.9-2.6-7.1,2.4
	c-0.1,4.5-2.5,7.5-4.5,10.8c-1.3,2.2-0.9,3.1,0.6,4.8c37.8,41.7,104.6,52.9,154.2,25.7c48.8-26.8,74.3-76.6,67.4-132
	c-2.5-19.5-9.5-37.4-20.5-53.8c-1.7-2.5-2.7-2.9-5-0.7c-2.3,2.2-3.3,4.3-2.9,7.5c0.9,7.5,0.1,15-0.9,22.5
	c-3.4,25.2-19.1,44.6-30.4,66.1c-0.3,0.5-0.9,0.8-1.3,1.2c0-0.6-0.1-1.3,0.1-1.9c5-14.9,8.4-30.3,15.9-44.3
	c6.9-12.9,10.6-27.1,13-41.5c0.1-0.9,0.7-2-0.3-2.6c-1-0.6-1.7,0.5-2.4,1.1c-13.4,10.4-28.1,18.3-44.3,23.3c-2.7,0.8-3,2.1-2.1,4.5
	c1.8,5,3.7,9.9,4.9,15.1c1.1,4.9,4.4,9.2,4.2,14.5l0.1-0.1c-7.6-8.1-14-17.1-19.4-26.7c-1.4-2.6-2.9-3.7-6-3.1
	c-7.9,1.5-15.9,2.1-23.9,1.8c-3-0.1-3.4,0.8-2.7,3.6c4,16.8,14.3,29.4,26.7,40.6c6.7,6,14.9,8.4,23.4,10.5c1.1,0.3,3,0.1,2.9,1.8
	c-0.1,1.4-1.8,1.7-3,1.9c-3.8,0.7-7.6,0.5-11.4-0.6c-11.9-3.4-20.7-11.4-28.4-20.4c-9-10.7-17.2-22.1-25.5-33.4
	c-3-4.2-6.5-6.4-11.7-7.1c-6.3-0.8-12.5-2.7-18.7-4.1C595.6,692,593.2,690.3,590.3,691.2z M685.5,317.7c-0.3,2.3-1.9,4-3.3,5.8
	c-15.8,20.6-35.5,36-60,45.1c-14.3,5.3-27.2,13-37.5,24.4c-1.3,1.4-1.9,2.3-0.1,3.8c9.8,8.1,16.4,18.3,20.1,30.3
	c0.2,0.7,0.2,1.8,1.2,1.9c1,0.1,1.2-0.9,1.5-1.6c2.1-3.8,3.9-7.7,6.1-11.4c9.8-16.6,21.3-31.7,39.4-40.2c12.7-6,26-8.9,40.1-6.3
	c1.2,0.2,3.3,0,3.4,1.2c0.1,1.6-2,1.5-3.2,1.9c-21.7,6.2-39.3,18.2-52.3,36.8c-8.3,11.9-18.6,21.9-31,29.7c-2,1.3-2.7,2.8-2.7,5.1
	c0.1,6.3-0.8,12.4-2.6,18.5c-0.3,1-1.4,2.3-0.4,3.1c1.1,0.9,2.3-0.4,3.4-0.9c17.2-7.9,33.4-17.5,48.8-28.5
	c28.5-20.4,48.7-46.8,58-81c0.8-2.9,0.6-5-1.4-7.4c-8-9.3-15.9-18.8-23.7-28.3C688.2,318.3,687.4,316.8,685.5,317.7
	c0.6-1.4,0.2-2.7-0.9-3.9c-12.2-14.3-20-31.7-31.5-46.5c-9.4-12.1-19.4-23.3-30.9-33.2c-6.3-5.4-12.6-10.8-20.2-14.3
	c-1-0.4-2-1.3-1.6-2c0.5-0.9,1.7,0.1,2.5,0.3c3.7,1.2,7.5,2.5,11.1,4c30.1,12.3,52.3,33.5,68.6,61.1c11.6,19.7,20.9,40.7,31.5,61
	c0.5,1,0.7,2.6,1.9,2.5c1.1-0.1,1-1.8,1.3-2.9c2.8-13.4,3.6-26.9,3-40.5c-0.5-12.8-6.1-22.1-16.7-28.8c-9.3-5.8-17.1-13.4-23.9-22
	c-11.4-14.3-20.3-30.2-29.8-45.8c-2-3.3-4.1-6.4-7.9-8.1c-48.2-21.5-103.9-14-144,22.8c-14,12.9-25,28.2-35.8,43.8
	c-18.3,26.5-33.2,54.7-41,86.2c-3.1,12.6-3.7,9.1,7.7,12.4c2.5,0.7,3.8,0.1,4.7-2.4c11.7-31.4,29.5-59.1,50-85.3
	c9.5-12.1,20.1-23.2,30.3-34.7c0.6-0.7,1.4-1.8,2.3-1.1c1.2,0.9-0.3,1.5-0.7,2.3c-6.8,14.3-15.5,27.5-23.3,41.2
	c-15.4,27.1-31.1,54-46.7,81c-1.6,2.8-1.4,4,1.8,5.2c8.6,3.2,16.6,7.6,24.2,12.5c2.2,1.4,3.8,1.5,6.1,0.2
	c19.5-11.6,37.6-24.9,52.5-42.2c12.7-14.8,24.9-30,37.6-44.7c8.7-10,18.2-19.4,30.3-25.5c1.1-0.5,2.3-1.8,3.5-0.9
	c1.1,0.9,0.2,2.4,0,3.6c-3.5,17.9-9.9,34.5-19,50.4c-13.1,22.9-33.1,36.6-56.9,45.8c-0.7,0.3-1.5,0.2-2.3,0.3
	c-0.1-1.3,1-1.3,1.8-1.7c10.1-5.6,19.5-12.1,27.7-20.2c16.2-16.1,25.9-36.3,35.1-56.8c0.2-0.5,0.2-1.2,0.3-1.8c-1.1,0.1-1.5,1-2,1.7
	c-15.4,19.5-32.5,37.4-50.5,54.5c-16.5,15.6-32.8,31.5-53.8,41.3c-2.7,1.3-1.3,2.1,0,3.3c4.5,3.8,9.1,7.6,13.4,11.6
	c2,1.8,3,1.5,4.6-0.2c4.9-5.2,10.6-9.3,17-12.3c2.6-1.2,2.7-2.3,0.6-4c-1.4-1.2-2-2.5,0.3-3.6c8-4,15.4-9.2,23.9-12.3
	c2.4-0.9,4.9-1.7,7.4-0.3c2.9,1.7,5.6,1,8.2-0.5c7.5-4.3,14.9-8.7,22.5-12.9c3.9-2.2,6.8-5,8.9-9c3.1-6,7.2-11.4,11.7-16.3
	c13.2-14.5,29.3-22.5,49.3-20.8c1.2,0.1,3.2-0.4,3.3,1c0.1,1.4-1.9,1.3-3,1.6c-15.9,4.3-29.1,12.8-39.4,25.7
	c-3.9,4.9-8.3,9.6-13.8,12.5c-13.2,6.9-24,16.8-35.2,26.2c-1.5,1.2-3,2.4-4.6,3.4c-1.5,1-3,1.6-5,1.1c-4.3-1.1-8.6-0.1-12.8,0.9
	c-0.6,0.1-1.1,0.5-1.7,0.8c0.5,0.9,1.3,0.4,1.9,0.3c11.1-1.1,21.7,0.9,31.7,5.7c3.1,1.5,5.1,1.2,7.6-0.9
	c13.2-10.9,27.5-20.4,42.3-29.1c21-12.4,42.7-23.9,61.6-39.6C683.2,317.8,684.3,317.6,685.5,317.7z M362.6,696.6
	c-1.9,0.3-3.8,0.6-5.7,0.8c-6.9,0.8-13.2-0.1-16.9-7c-1.5-2.7-2.2-1.1-3.1,0.4c-4.9,8.1-10,16-14.6,24.2
	c-12.1,21.4-16.4,44-9.9,68.3c2.5,9.4,5.1,18.8,6.5,28.5c0.1,0.6,0.8,1.3,0.1,1.6c-0.9,0.3-0.7-0.8-0.9-1.3
	c-4.3-9.8-7.9-19.9-11.8-29.9c-11.1-28.8-9.9-56.8,4.3-84.4c6.1-11.8,11.1-24.1,15-36.8c2.5-8.2,2.5-8.2-5.3-12.1
	c-1.6-0.8-3.2-1.5-4.6-2.5c-3-2.1-4.4-1.4-6,1.9c-7.6,15.8-13.6,32.1-18.2,48.9c-12.7,46.9-4.4,89.6,26,127.7
	c1.4,1.8,2.8,3.3,5.2,3.9c10.5,2.9,20.5,7.2,30.5,11.6c16.9,7.4,34.2,11.8,53.1,9.6c16-1.9,32.1-3.5,48.2-5.1
	c1.2-0.1,3.3-0.8,3.4,0.2c0.2,1.5-1.9,1.2-3,1.5c-17.3,4.7-35,7.6-52.5,11.3c-17.8,3.8-34.6,1.4-50.9-6.5c-2.2-1-4.4-1.9-6.6-2.8
	c-0.5-0.2-1.2-0.2-1.8-0.4c0.4,0.5,0.7,1,1.1,1.4c0.5,0.4,1,0.7,1.6,1.1c45.3,28.7,92.4,32.2,141.1,9.3c18.2-8.6,33.4-21.3,46-36.9
	c1.1-1.4,3.9-3-0.7-3.9c-20.2-3.8-40-3.3-59.8,2.7c-14.5,4.4-28.9,9.6-43.8,12.6c-15.3,3.1-30.4,4.7-44.4-4.8
	c-6.2-4.2-12.5-8.3-18.4-12.9l0,0c1.5,0.6,3,1,4.4,1.7c18.3,8.5,37.3,11.8,57.3,8.7c11.3-1.8,21.4-7.2,32.3-10.2
	c26.2-7,52.7-11.8,80.1-9.7c3,0.2,4.6-0.7,6.1-3.3c5.9-10.7,10.5-21.9,13.6-33.7c7-26.6,5.1-52.9-2.8-79c-0.3-0.9-0.3-2.4-1.3-2.3
	c-1.5,0.1-0.8,1.7-0.9,2.7c-0.9,7.6-1.6,15.3-2.6,22.9c-1.7,13.3-2.8,26.7-5.5,39.9c-0.3,1.5,0,4-1.8,3.9c-1.5-0.1-1.2-2.7-1.3-4.2
	c-0.4-5.3-0.9-10.5-1.1-15.8c-0.8-21.3,0.4-42.5,2.2-63.7c0.3-3.4-0.8-5.5-3.9-7.3c-9.6-5.5-18.5-12-27-19.1c-3-2.5-3.8-2.2-4.3,1.7
	c-3.5,27.6-7.3,55.2-10.8,82.8c-2.7,21.3-5.1,42.6-7.7,63.8c-0.1,0.8,0.3,2.2-0.8,2.4c-1.2,0.2-1.2-1.3-1.5-2.1
	c-1.5-4.3-2.1-8.7-2.6-13.2c-3.1-27.7-3.3-55.6-2.8-83.4c0.3-19.8-2.4-39.2-5.1-58.7c-0.4-3-1.2-3.9-4.1-1.8
	c-7,4.8-14.4,9.1-22.3,12.2c-4.1,1.6-4.6,2.7-1.6,6.4c8.6,10.4,14.6,22.2,14.8,36.1c0.1,7.9-5,13.1-12.8,14.2
	c-4.7,0.6-9.3,0-13.8-1.4c-2.9-0.9-4-0.5-4.1,2.8c-0.5,13.8-2.9,27.3-4.6,41c-1.1,8.4-2,16.8-3,25.2c-0.1,1-0.6,2.3,0.6,3
	c0.3,0.2,1.2-0.2,1.6-0.5c7.4-5.3,14.5-10.9,20.4-18.1c7.1-8.7,10.5-18.9,13.7-29.3c2.1-6.7,4.1-13.4,7.6-19.5
	c0.8-1.3,2-2.6,3.2-2.1c1.3,0.5,0.3,2.3,0.1,3.5c-2.6,12.7-6.3,25.1-10.3,37.3c-1.9,5.8-5,10.8-9.5,15.2
	c-11,10.7-22.7,20.7-31.7,33.3c-1.6,2.3-3.9,4.2-6,6.2c-0.6,0.6-1.5,1.6-2.5,0.9c-1-0.7-0.2-1.7,0.1-2.6c2.2-6.1,3-12.4,3.8-18.8
	c3-24.8,2.1-49.9,6.7-74.5c1-5.5-0.1-8.7-5.2-11.3c-3.3-1.7-4.1-2.3-4.7,2c-4.6,32.7-12.9,64.5-24.4,95.5c-0.4,1.1-0.7,3.2-1.8,2.9
	c-1-0.2-0.1-2.2,0.2-3.4c2.6-10.6,5.6-21.1,6.2-32c1.2-20.8,1.9-41.5,2.8-62.3c0.2-5.4,0.7-10.9,1.1-16.3c0.1-1.8,0.2-3.7-2.1-4.2
	c-2.4-0.5-13.1,5.7-13.9,8.2c-4.4,13.8-10.1,27.2-15,40.8c-7.7,21.3-10.6,43.7-14.9,65.8c-0.3,1.3,0.1,3.8-1,3.7
	c-2-0.1-1.2-2.6-1.5-4c-1.4-6.9-2.1-13.9-2.4-21c-0.9-22.7-0.5-45.2,9.7-66.2c1.9-3.9,3.6-7.8,5.5-11.7c0.1-0.2,0.2-0.4,0.3-0.6
	C363.1,696.4,362.8,696.5,362.6,696.6z M643.3,525.9c-2.4,0.4-3.8-1.5-5.3-2.6c-10.5-7.8-21.9-13.3-34.9-14.8
	c-18.6-2.1-36.6,1.8-54.4,6.8c-1.9,0.5-5.5,0.8-5.2,2.3c0.4,2.3,3.7,1.3,5.7,1.5c33.3,3.2,65.6,11,96.9,22.6
	c19.2,7.1,33.8,19.7,43.8,37.5c0.4,0.6,0.8,2,0.7,2.1c-0.9,0.5-1.4-0.4-1.8-0.9c-3.5-3.9-8-6.7-12-10
	c-18.6-15.1-39.5-25.3-63.4-28.6c-14.4-2-28.9-3-43.4-4.3c-2.5-0.2-4.9-1.3-7.5-0.6c1.5,2.5,4.2,3.2,6.5,4.5
	c16.2,9.3,33,17.8,46.9,30.6c22.1,20.1,43.7,40.8,67.9,58.6c0.5,0.4,1.2,1,1.1,1.4c-0.3,1.1-1.3,0.5-1.9,0.4c-1.7-0.3-3.5-0.6-5.2-1
	c-10.7-2.5-21.4-4.8-31.9-7.9c-5.4-1.6-11-2.8-16-5.2c-16.2-7.8-32.4-15.3-50.3-18.4c-11.6-2-21.8-7.3-30.9-14.6
	c-4.9-3.9-9.8-7.7-14.6-11.7c-2.3-1.9-3.6-2-4.8,1c-3.6,8.6-8.2,16.7-13.6,24.2c-1.9,2.6-0.8,3.7,1.3,5.3
	c13.9,10,27.7,20.1,41.4,30.4c16.1,12,32.4,23.4,52.3,28.4c11.2,2.8,22.4,5.5,33.7,7.7c0.9,0.2,1.8,0.5,2.7,0.8
	c-0.4,1.1-1.4,1.1-2.3,1.3c-16.6,3.5-33.3,4.4-50.1,1.5c-21.7-3.7-40.2-14.4-57.6-27.1c-11.6-8.5-23.2-17-35.6-24.4
	c-1.8-1.1-3.7-2.9-5.8-0.3c-2.3,2.8,0.7,3.7,1.9,4.9c17.6,17.2,37,32.1,58.9,43.4c32.4,16.8,66.7,26.4,103.5,23.5
	c80-6.4,135.7-83.2,117.7-161.4c-6.7-29-21.8-53-44.4-72.3c-4.4-3.7-4.4-3.6-6.5,1.9c-1.7,4.4-2.8,8.9-3.3,13.5
	c-2.3,22.6-11.7,43.1-19.5,64c-0.2,0.7-0.4,1.8-1.4,1.6c-1-0.2-0.5-1.3-0.6-2c-0.6-8.1,1.9-15.9,2.4-23.8c1.3-21.4,4.4-42.3,15-61.4
	c1.2-2.1,0.6-3.4-1.5-4.6c-14.3-8.7-29.5-14.6-46.2-16.4c-1.9-0.2-3.3,0.3-4.8,1.5c-11.2,8.8-23,16.8-35.5,23.6
	c-3.1,1.7-2.5,2.9-0.3,4.8c5,4.2,10,8.5,14.8,13c12.9,11.9,28,18.1,45.6,18.7c1.3,0,3.6-0.6,3.7,1.1c0.1,1.8-2.2,1.4-3.5,1.6
	c-22.7,2.5-44.1-0.6-62.3-15.8c-3.7-3.1-7.4-6.1-11.2-9c-2-1.5-3.7-4.9-6.2-3.9c-4.3,1.7-9.7,2.3-12.4,6.7c-3.9,6.3-8.4,12-13.9,17
	c-0.6,0.6-1.9,1.1-1.4,2.2c0.5,1,1.7,0.4,2.6,0.4C611,495.2,628.7,507.6,643.3,525.9L643.3,525.9z M297.2,628.3
	c72.4,57.6,180.6,34.5,223.3-47.5c11.3-21.7,16.9-44.8,17-69.2c0-2.2,0.4-4.4-3-4.9c-9.3-1.3-17.9-4.8-25.7-10.1
	c-0.8-0.5-2-1.3-2.5-1c-1.2,0.7-0.4,2-0.2,3c0.7,3.3,1.5,6.5,2.2,9.8c4.7,22,2.8,43.5-5.7,64.4c-0.7,1.7-1.5,4.4-3.6,3.9
	c-1.9-0.4-0.8-3.1-0.8-4.7c0-25.3,2.2-50.5,1.1-75.8c-0.3-6.4-2.7-10.9-6.5-15.3c-0.5-0.5-0.8-1.6-1.8-1c-0.4,0.2-0.5,1.1-0.6,1.7
	c-0.6,3.9-0.9,8-1.8,11.8c-6.5,28.5-9.5,57.4-9.6,86.6c0,4.8-1.3,8-5,10.9c-2.9,2.4-3.5,1.1-4.5-1.4c-2.9-7.4-2.7-14.8-0.3-22.1
	c3.3-9.8,3.9-19.8,1.7-29.8c-3-13.3-3-26.7-1.9-40.1c1.1-13,0.9-25.9-4.4-38.2c-3-7-4.7-14.2-5.5-21.8c-0.9-8.9-1.4-17.9-0.9-26.8
	c0.1-1.7,0.2-5,3-2.7c3.3,2.7,6.8,5.6,6.7,10.9c0,14.9,2.2,29.6,6.3,44c1.8,6.2,2.1,12.6,2,19c-0.2,12-0.2,24-0.3,36
	c0,0.7,0.1,2.1,0.4,2.1c1.3,0.2,1.3-1.1,1.6-1.9c2.6-7.9,5.1-15.8,4.8-24.3c-0.5-15-0.5-30.1-1.1-45.1c-0.6-14.1,2.7-27,10.6-38.6
	c1.6-2.3,1.6-3.5-0.5-5.5c-7.8-7.5-16.4-14.1-25.7-19.5c-41.6-24.5-85.3-28.1-130.6-11.6c-20.2,7.4-37.1,19.8-52.4,34.6
	c-0.7,0.7-1.2,1.6-0.8,2.6c1,2.1,2.1,4.2,3.2,6.4c1.5-1.9,0-3.9,0.4-5.8c0.1-0.6,0.3-1.1,0.5-1.6c0.3,0.5,0.6,1.1,0.9,1.6
	c0.2,0.6,0.3,1.2,0.5,1.9c4.9,21.8,6.6,43.6,1.5,65.6c-5.1,22-4.6,43.5,3.4,65.1c8.8,23.7,11.1,48.3,3.6,73c-0.3,1,0,2.4-1.6,2.6
	c-0.1-0.9-0.3-1.9-0.2-2.8c3.3-26-6.3-49.1-16.8-71.8c-0.3-0.6-0.4-1.7-1.5-1.4c-0.1,0,0,1.5,0.2,2.2c1.1,4.4,2.1,8.7,3.3,13
	c3.3,12.5,6.6,25,9.9,37.6c0.2,0.7,0.6,1.5-0.1,2.1c-0.1,0.1-1-0.7-1.3-1.2c-9.5-14.1-16.8-29.5-21.9-45.6
	c-3.4-10.9-4.5-22.6-3.5-34.2c0.5-5.7,1-11.5,1.4-17.2c0.1-0.8,0.2-1.9-0.2-2.3c-0.9-0.8-1.8,0.2-2.5,0.7
	c-5.1,3.7-10.5,6.8-16.6,8.6c-3.4,1-4.3,2.9-4.2,6.3c0.9,43.3,17.4,79.4,49.1,108.8 M298.8,202.6c-4.2,0-8.3-0.2-12.5,0.1
	c-3,0.2-6,0.7-9,1.3c-30.9,6.1-55,22.7-73,48.2c-14.1,19.9-21.8,42.2-22.9,66.7c0,1-0.7,2.5,0.6,3c0.9,0.3,1.4-1,2-1.7
	c9.7-12.5,22.3-21,36.9-26.7c15.6-6.1,31.5-11.5,47.3-17.3c0.7-0.3,1.5-0.5,2.2-0.1c-0.5,0.6-0.9,1.3-1.6,1.7
	c-14.9,9.8-29.5,19.8-46.2,26.5C208,310.1,195.3,319,184,330c-1.6,1.5-2.6,3-2.4,5.4c1.6,14.3,5.1,28,11.3,41c1.1,2.3,2,3.1,4.7,2.1
	c11.9-4.7,24.2-5.6,36.8-3.3c0.7,0.1,2,0.2,2.2-0.1c0.5-1.1-0.6-1.6-1.3-2.3c-3.1-3-6.4-5.8-9.5-8.8c-5.1-5-6.8-10.9-5.3-18
	c0.7-3.5,1.8-6.9,3.7-9.8c3.1-4.6,1.1-7.6-2.1-10.8c-3.2-3.3-7.9-4-11.3-6.8c-0.6-0.5-1.8-0.6-1.4-1.5c0.1-0.4,1.4-0.5,2.1-0.4
	c6.7,0.7,13.3,1.9,19.1,5.5c15.8,9.8,22.3,24.9,23.7,42.7c0.5,5.8,1.1,11.5,3.3,16.9c0.7,1.8,1.5,3.5,3.2,4.7
	c6.4,4.3,11.9,9.8,16.4,16c1.6,2.2,2.7,2,4.4,0.2c6.4-6.5,13.5-12.3,21.1-17.3c2.5-1.7,2.6-2.9,0.8-5.2
	c-9.9-13.6-19.6-27.3-29.5-40.9c-5.2-7.2-10.6-14.3-15.8-21.6c-0.8-1.1-2.9-2.4-1.6-4c0.4-0.5,2.3,1.2,3.3,2.2
	c4.5,4.5,9,9.1,13.4,13.6c12.3,12.6,22.7,26.9,36.1,38.5c8.8,7.7,8.6,7.8,19.1,3c3.5-1.6,3-2.6,0.7-4.9c-4.9-4.8-9.7-9.9-12.1-16.5
	c-5.3-14.7-11.9-28.8-20.3-42.1c-7.3-11.6-11-25.1-15.4-38c-0.3-1-1.1-2.5-0.1-3.1c1.1-0.7,1.8,0.9,2.6,1.6
	c11.7,11.6,23.6,23,36.7,33.1c13.5,10.5,24.9,22.9,34.8,36.8c4.6,6.5,9.6,12.8,14.1,19.4c2,2.8,4.7,2.5,6.8,1.5
	c2.5-1.2,0.3-3.3-0.3-4.9c-5.3-14.9-13.6-28.2-22.5-41.1c-12-17.3-24.3-34.4-36.4-51.7c-0.7-1-2.3-2.3-1.5-3.1
	c0.9-0.8,2.1,0.9,2.9,1.7c14.8,13.6,28.9,28,42.4,43c11.7,13.1,22.9,26.6,28,43.6c2.7,9.2,6.5,14.7,16.8,13.1
	c1.4-0.2,2.9,0.3,4.3,0.6c2.7,0.6,4.1-0.1,4.6-3.1c0.8-4.4,1.9-8.8,3.3-13c1-3.1,0.2-5-1.9-7.2c-9.3-9.6-19-18.6-25-31.1
	c-4.2-8.8-10.8-16.7-16.3-25c-5.9-8.9-12-17.7-17.7-26.7c-1.5-2.3-3.3-4.6-3.7-7.5c2.8,0.8,4.1,3.4,6.2,5
	c13.6,10.4,24.6,22.8,31.2,38.8c4,9.6,9.2,18.2,17.1,25.2c4.1,3.6,8.2,7.2,12,11c2.5,2.4,3.4,1.8,4.5-1.1
	c4.2-11.6,9.6-22.7,15.7-33.4c1.4-2.4,1.3-4.3-0.1-6.6c-11.7-19.8-26.7-36.6-45.2-50.4c-2.7-2.1-5.5-2.8-8.9-2.6
	c-27.1,1.9-54.1,3.9-80.5,10.8c-2.5,0.6-6.6,3-7.2,1c-0.8-2.6,3.5-3.8,5.9-5.1c17.3-9.6,36.1-15.5,55.1-20.9
	c1.4-0.4,3.9-0.2,3.9-1.7c0.1-1.6-2.4-1.7-3.8-2.3C339.8,206,319.6,202.4,298.8,202.6z M205.5,723.9c17.1-1.2,37.2-3.5,55.5-13.7
	c7.9-4.5,15.7-9.3,23.6-13.9c2-1.2,2.9-2.8,3.4-4.9c1.7-6.3,3.1-12.8,5.4-18.8c3.7-9.3,7.9-18.5,12.2-27.5c1.4-2.9,0.7-4.1-1.7-5.8
	c-4.9-3.4-9.7-6.8-14.1-10.8c-2.9-2.5-4.5-2.5-7.5,0c-23.9,21-46,43.5-64.6,69.3c-0.6,0.8-1.2,2.6-2.2,2c-0.9-0.5,0.1-2,0.4-3.1
	c3-10.9,8.2-20.8,14.2-30.3c11.4-18.4,25.1-35.1,40.6-50.3c2.4-2.4,2.8-3.9,0.4-6.6c-7.2-8.2-13.2-17.3-18-27.1
	c-1.6-3.1-2.8-4.1-5.9-1.7c-6,4.5-12.3,8.6-18.4,13.1c-8,5.8-14.6,12.7-19.1,21.7c-5.2,10.4-10.5,20.8-16.7,30.6
	c-9.5,15.1-17.4,30.7-21.9,48c-0.4,1.4,0,4.4-2.5,3.5c-2-0.8-5-2.2-3.8-5.6c0.9-2.6,1.5-5.3,2.8-7.6c7.6-14.1,11.7-29.6,18.4-44.1
	c5.8-12.6,11.3-25.4,18.2-37.5c1.3-2.3,4.6-5.4,2.9-6.9c-2.1-1.9-6.1-0.3-9,1c-1.6,0.7-3.1,1.7-4.3,3c-6.7,7.5-13.3,15.1-19.9,22.7
	c-1,1.2-1.9,2.4-1.4,4.3c3.6,14.3-2.5,25.3-11.8,35.3c-0.8,0.9-1.8,2.7-2.8,2c-0.8-0.5-0.3-2.5,0.5-3.9c3.9-7.1,5.8-14.8,5.7-23
	c0-3.4,0-6.7-0.2-10.1c-0.4-6.6,1.8-11.6,7.7-15.1c3-1.8,5.6-4.3,8.2-6.6c1-0.9,2.9-2,2.1-3.4c-0.8-1.5-2.6-0.4-3.9,0.2
	c-7,3.1-14.3,3-21.6,1.5c-7-1.5-14.1-2.7-21.1-4.3c-1.7-0.4-4.3-1.4-4.2-3.1c0.1-2,2.8-1.6,4.4-1.7c3.3-0.4,6.7-0.4,10.1-0.6
	c12.8-0.8,25.5-2,37.9-5.6c18.1-5.3,35.9-11.6,53.6-18.2c9.5-3.5,9.5-3.6,5.7-13.2c-0.8-2-1.7-2.8-3.9-2.3
	c-18.3,3.9-37,5.6-55.5,8.1c-13.8,1.9-26.7,7.5-40,11.1c-1.1,0.3-2.5,1.5-3.4,0.2c-0.3-0.4,0.8-1.9,1.3-2.9c2.4-4.3,7.2-3.9,11-4.8
	c27.8-6.9,55.8-12.8,84-17.6c1.4-0.2,3.9,0.3,3.6-2.1c-0.6-4.4-1.2-9-2.8-13.1c-1.1-2.8-4.9-2.5-7.6-3.4c-5.3-1.7-10.6-5.1-16.1-4.2
	c-21.4,3.2-41.9,9.3-59,23.4c-3.4,2.8-6.5,3.2-10.5,2.4c-3-0.6-2.6-1.5-1-3.2c11.9-13.1,24.4-25.4,41.2-32.3
	c4.4-1.8,8.6-4.2,12.9-6.4c1-0.5,2.5-0.7,2.5-1.9c0-1.3-1.6-1.2-2.6-1.7c-3.6-1.8-7.3-3.3-10.7-5.4c-2.4-1.5-4.1-1.5-6.5,0.1
	c-6.7,4.6-13.7,8.9-20.4,13.5c-8,5.6-16.6,10.4-23.7,17.2c-9.1,8.7-17,18.5-23.3,29.5c-0.4,0.8-0.6,2.1-1.8,1.9
	c-0.5-0.1-0.5-1-0.2-1.6c7.3-14.8,15.5-29,27.9-40.2c10-9,20.5-17.4,31.5-25.1c5-3.5,5-3.5,1.1-7.8c-3.1-3.4-6-7.1-8.2-11.2
	c-1-1.9-2-2.4-4.2-1.5c-27.6,12.4-50.2,30.5-65.4,57.1c-1.2,2.2-1.4,4-0.3,6.3c3.2,6.7,4.8,13.8,5.6,21.2
	c1.1,10.2,4.4,19.8,9.8,28.7c8.4,13.7,14.9,28.2,19.6,43.6c3.5,11.6,7,23.4,13.8,33.5c11.3,16.8,23.7,33,32,51.6
	c1.1,2.5,3.2,3.3,5.7,3.7C186.8,722.9,194.4,723.9,205.5,723.9z M753.8,353.7c-10.1,0-20.1,1-30,3c-3.5,0.7-5.4,2.2-6.5,5.8
	c-5.5,17.6-14,33.6-25.6,47.9c-4.6,5.6-9.6,10.7-14.9,15.6c-0.7,0.6-1.8,1.1-1.5,2.2c0.3,1.2,1.6,0.6,2.5,1c3.9,1.6,6.6-0.5,9.4-2.8
	c15.7-13,29.6-27.8,44.4-41.7c8.7-8.2,19.5-12.9,30.7-16.6c0.7-0.2,1.5-1,2.3-0.2c-0.6,0.5-1.1,1.1-1.8,1.5
	c-8.3,4.2-15.2,10.2-21.7,16.8c-6,6.1-10.3,13.4-15.3,20.2c-7,9.4-15.6,17.3-24.4,25.1c-0.9,0.8-2.9,1.3-2.1,3.2
	c1,2.1,10,3.9,12.1,2.7c7.7-4.6,15.5-9,23.9-12.3c3.2-1.3,5.8-3.3,8.2-5.7c12.1-12.1,24.2-24,36.4-36c0.9-0.9,2.1-1.4,3.2-2
	c0.8,1.4-0.6,2.3-0.9,3.3c-0.7,2.2-1.9,4.3-2.7,6.6c-8.5,24.7-19,48.4-32.6,70.7c-0.6,1-2,2.1-1.1,3.4c0.8,1.2,2.4,0.8,3.6,0.5
	c18.6-3.9,35.2-11,47-26.9c2.9-3.9,4.9-8.1,7.2-12.3c0.4-0.8,0.8-2,2-1.7c1.1,0.3,1,1.5,1.1,2.4c0.3,3.2-0.3,6.4-1.5,9.4
	c-4,9.7-11.5,16.3-20,22c-8.7,5.8-18.2,9.9-27.6,14.5c-2.9,1.4-3,2.4-1.1,4.8c2.8,3.4,5.6,7.1,7.7,11c2.3,4.2,4.3,4,8,1.6
	c12.5-8,26.2-12.6,41.3-12.1c1.2,0,2.9-0.5,3.3,1.1c0.3,1.4-1.4,1.5-2.2,2c-12.5,7.8-24.5,16.3-36.5,25c-2.3,1.7-2.8,3.3-1.7,6
	c2,5,3.8,10.2,5,15.5c0.9,3.9,2,4.1,5.2,1.9c11.2-8,22.5-15.7,33.9-23.5c0.8-0.5,1.6-2,2.7-0.9c0.3,0.3-0.4,1.7-0.9,2.5
	c-7.6,13.2-16.5,25.5-28,35.6c-6.6,5.8-10.6,11.9-8.7,20.9c0.2,1-0.6,2.4,0.5,3.1c1.2,0.7,2-0.6,2.8-1.2c6.2-4.3,12.3-8.7,18.4-12.9
	c1-0.7,2.4-2.4,3.1-1.6c0.8,0.9-1,2-1.7,2.8c-6.6,7.6-13.8,14.6-21.2,21.4c-1.9,1.7-2.9,3.5-3.2,6.1c-0.3,3.5-1,7-2,10.3
	c-1.3,4.3,0.1,4.5,3.7,3.4c23.7-7.3,43.6-20.3,59.7-39.3c1.8-2.1,2.2-3.9,1.4-6.5c-2.3-7.2-4.2-14.6-6.7-21.8
	c-3-8.5-3.8-17.8-8-25.8c-4.1-7.9-5.3-16.6-9-24.7c-3.8-8.3-6.7-16.9-12.2-24.3c-2-2.7-1-2.9,1.3-3.4c7.5-1.8,15,1.4,19.9,8.4
	c3.5,5,5.8,10.6,7.7,16.4c6.5,20,10.3,40.6,15.3,60.9c0.3,1.4,0.2,3.5,1.5,3.7c1.5,0.2,1.8-2,2.5-3.2c15.8-29.3,18.4-60.1,11-92.2
	c-5.7-24.8-16.8-46.6-36.4-63.3C810.8,361.1,783.5,353.7,753.8,353.7z M285.3,442.5c0-35.1-28.5-63.5-63.5-63.6
	c-35.3-0.1-63.8,28.3-63.8,63.6c0,35.2,28.6,63.7,64,63.6C257,506,285.4,477.6,285.3,442.5z M602.1,444.7
	c0-31.8-25.9-57.7-57.7-57.7c-31.9,0-57.7,25.7-57.8,57.6c-0.1,32.1,25.9,58.1,57.9,57.9C576.4,502.4,602.2,476.5,602.1,444.7z
	 M280.7,737.4c0-2.2,0-4.5,0-6.7c0-0.8,0.9-2-0.5-2.4c-0.4-0.1-1.2,0.8-1.7,1.4c-5.3,7-10.5,14.1-15.9,21.1c-1,1.2-1.7,4-3.4,3
	c-1.4-0.8-0.9-3.5-0.6-5.4c0.2-1,1-2,1.7-2.8c3-3.6,5.8-7.3,9-10.6c8-8.1,14.7-16.8,14.8-28.9c0-1.1,1.2-2.4,0.2-3.1
	c-1-0.8-2,0.4-2.9,1c-10,6-20,12.1-30.9,16.3c-1.9,0.8-2.6,2.1-2.8,4c-1.6,11-1.7,22-0.7,33c0.2,2.1,0.9,3.9,2.6,5.4
	c13.5,11.5,26.9,23.2,40.3,34.8c0.7,0.6,1.3,1.3,2,2c-1.2,0.9-2-0.2-2.8-0.6c-13.1-6.2-24.9-14.2-35.4-24.1c-1.1-1-2.2-3.3-3.6-2.4
	c-1.1,0.7,0.2,3,0.6,4.4c4.3,15.4,11.4,29.5,21,42.3c12.4,16.3,28.4,28.3,46.4,37.7c0.8,0.4,2.5,0.5,2.6,0.2
	c0.5-1.1-0.7-1.5-1.4-1.9c-2.8-1.8-5.7-3.4-8.4-5.4c-14.1-10-24.2-24.1-36.4-36.1c-1.4-1.4-3-2.8-3.6-4.9c2.7-0.4,3.6,2,5.2,3.3
	c0.5,0.4,1.1,0.7,1.6,1c10.8,6.3,21,13.4,29.8,22.3c8.5,8.6,18.2,15.6,28.6,21.6c7.5,4.3,15.1,8.5,23.6,10.4
	c1.2,0.3,3.3,1.1,3.8-0.3c0.4-1.3-1.8-1.4-2.8-1.9c-15.1-7.8-29-17-40.7-29.5C294.4,807.9,281.5,775.1,280.7,737.4z M445.8,703.7
	c11.1,0.2,15.1-4.2,13.7-13.5c-1.9-12.4-8-22.7-16.1-32c-1.8-2-3.5-1.5-5.6-0.8c-24.1,8-48.7,9.9-73.8,6c-1.4-0.2-2.9-1.1-4.2-0.2
	c-6.3,4.6-13,9.1-15.7,16.9c-2.6,7.5,1.9,13.1,10,12.5c4.5-0.3,8.7-1.8,12.8-3.7c8.7-4.1,17.4-8.1,26-12.3c3.2-1.6,5.4-1.3,8.1,1.1
	c6.1,5.4,12.2,10.8,18.7,15.7C428,699.5,437.4,702.8,445.8,703.7z M84.9,551.6c-1.3,0.9-1.4,2.5-1.9,3.8
	c-16.8,47.1-1.5,104.2,36.7,136.8c0.8,0.7,1.7,2.2,2.7,1.5c1.1-0.8,0-2.4-0.3-3.5c-6.2-21.7-13.4-43-16.9-65.4
	c-3.7-23.9-11.8-46.8-18.6-69.9C86.2,553.7,86.1,552.3,84.9,551.6z M542.3,532.6c-1.5,0.8-1.4,2.1-1.7,3.3c-1.3,5.9-2.3,11.9-4,17.8
	c-1,3.6-0.4,4.9,3.2,6.1c14.5,5,28.7,10.7,40.9,20.5c4.6,3.7,10.2,6.2,16.1,7.2c11.2,1.8,20.9,6.8,30.3,12.7
	c2.6,1.6,5.2,3.2,7.8,4.6c1,0.6,1.9,1.9,3.4,1.1c-0.6-0.9-1.2-1.9-1.9-2.7c-3.3-3.5-6.6-7-10-10.4c-13.5-13.2-27-26.4-44.5-34.4
	c-13.6-6.2-26.3-13.9-37.2-24.3C544,533.6,543.1,533.2,542.3,532.6z M348.1,363.9c4.5-1,9-2,13.6-3c1-0.2,2.6,0.1,2.7-1.3
	c0.1-0.7-1-1.6-1.6-2.2c-5-4.5-9.1-9.8-13-15.3c-4.3-6-7.6-12.6-12.7-17.9c-8.7-9-18.1-17.1-28.6-23.8c-1.5-0.9-1.9-3.5-4.3-2.8
	c1.1,1.7,2.2,3.5,3.4,5.1c6,7.5,12,14.9,14.6,24.5c1.2,4.3,3.4,8.4,6.6,11.6c6.7,6.7,12,14.5,16.3,22.9
	C345.6,362.9,346.2,364.3,348.1,363.9z M110.5,609.5c-1.4,0.4-0.9,1.4-0.9,2c0.5,8.8,1.1,17.5,4.4,25.8
	c7.2,18.3,15.6,36.1,21.5,54.8c5.2,16.3,5,16.4,20.9,22.5c1.1,0.4,2.5,1.7,3.5,0.8c1.2-1.3-0.4-2.6-1-3.8
	c-4.9-10.8-10.6-21.2-17.2-31c-7.2-10.7-12.7-22.1-16.9-34.3c-4-11.6-8.8-23-13.2-34.4C111.3,611.2,110.9,610.3,110.5,609.5z
	 M656.1,205.8c-1.5,1-0.2,1.7,0.1,2.3c5.8,9.9,11.9,19.7,20.6,27.5c10.9,9.9,21,20.6,31.3,31c0.8,0.8,1.8,2.7,2.7,2
	c1-0.7-0.4-2.3-0.9-3.4c-11.2-23.6-27.4-42.9-50.1-56.4C658.6,208,657.4,206.8,656.1,205.8z M496.8,637.4c0.3-3.1-4.6-9.7-7-9.5
	c-2.8,0.2-6,5.4-5.6,9.2c0.5,5.4,1.1,10.8,1.7,16.2c1.7,16.7,3.5,33.4,5.2,50.1c0.1,1.2,0.6,2.4,1,3.6c0.2-1.2,0.5-2.4,0.5-3.6
	C494,681.4,495.4,659.4,496.8,637.4z M269.9,504.9c0,6.1-0.2,12.2,1.4,18.1c0.3,1.1,0.5,2.8,2.2,2.7c1.3-0.1,1.5-1.6,1.7-2.6
	c3.2-13.7,3.9-27.8,5.2-41.8c0.1-0.5,0.4-1.4-0.6-1.5c-0.3,0-0.8,0.4-1,0.8c-5,6.3-11,12.2-9,21.5
	C270,502.9,269.9,503.9,269.9,504.9z M738.8,458.8c0.5-0.3,1.1-0.4,1.3-0.7c4.8-6,9.4-12.1,12.3-19.3c0.2-0.5,0.1-1.4-0.3-1.7
	c-0.7-0.6-1.5,0-2.1,0.5c-3.8,3.1-8.4,4.5-12.9,6c-2.7,0.9-5.5,1.8-8.1,2.8c-1.1,0.4-2.8,0.4-3,2c-0.1,1.2,1.4,1.6,2.2,2.3
	c2.7,2.2,5.5,4.3,8.3,6.5C737.2,457.7,738,458.2,738.8,458.8z M232.2,352.6c0.2,7.8,5.9,10.3,11.4,13c0.9,0.4,1.9,1.7,2.9,0.6
	c0.7-0.8-0.1-1.8-0.4-2.6c-1.9-4.6-2.8-9.4-3.1-14.4c-0.3-4.3-1.6-8.4-3.8-12.2c-0.5-0.8-1.6-3.3-2.3-0.5
	C235.3,342,232.6,347.2,232.2,352.6z M597.5,709.1c-0.5-0.5-1.1-1-1.7-1.5c-7.7-5.6-15.3-11.2-23-16.8c-3.9-2.8-7.8-5.6-11.7-8.3
	c-0.5-0.3-1.1-0.5-1.7-0.7c-0.1,0.4-0.3,1-0.2,1.3c1.2,2.6,0.8,6,3.3,7.7c10.5,7.3,21.7,13.3,33.3,18.6
	C596.4,709.7,596.9,710.2,597.5,709.1z M353.2,661.8c-0.6-1.6-2.1-1.6-3.2-1.6c-2.6,0.1-1.8,2.6-2.4,4c-0.3,0.7-0.2,2,0.9,1.4
	C350.3,664.7,352.1,663.6,353.2,661.8z"/>
<path class="st1" d="M293.6,625.3c-1.6-1.4-1.8-1.7-3.4-2.9l-0.4-0.4c-31.6-29.4-48.2-65.5-49.1-108.8c-0.1-3.4,0.8-5.2,4.2-6.3
	c6-1.8,11.5-4.9,16.6-8.6c0.7-0.5,1.6-1.5,2.5-0.7c0.4,0.4,0.3,1.5,0.2,2.3c-0.4,5.7-1,11.5-1.4,17.2c-0.9,11.6,0.1,23.3,3.5,34.2
	c5.1,16.1,12.4,31.5,21.9,45.6c0.3,0.5,1.2,1.2,1.3,1.2c0.8-0.6,0.3-1.4,0.1-2.1c-3.3-12.5-6.6-25-9.9-37.6c-1.1-4.3-2.2-8.7-3.3-13
	c-0.2-0.7-0.3-2.2-0.2-2.2c1.1-0.3,1.2,0.8,1.5,1.4c10.5,22.8,20.2,45.8,16.8,71.8c-0.1,0.9,0.1,1.9,0.2,2.8
	c1.6-0.2,1.3-1.6,1.6-2.6c7.5-24.8,5.2-49.3-3.6-73c-8-21.6-8.5-43.1-3.4-65.1c5.1-22,3.3-43.9-1.5-65.6c-0.1-0.6-0.3-1.3-0.5-1.9
	c-0.2-0.6-0.6-1.1-0.9-1.6c-0.2,0.5-0.4,1.1-0.5,1.6c-0.4,1.9,1.1,3.9-0.4,5.8c-1.1-2.1-2.2-4.2-3.2-6.4c-0.5-1,0-1.9,0.8-2.6
	c15.3-14.8,32.2-27.2,52.4-34.6c45.3-16.5,88.9-12.9,130.6,11.6c9.3,5.5,17.9,12,25.7,19.5c2.1,2,2.1,3.2,0.5,5.5
	c-7.9,11.6-11.1,24.6-10.6,38.6c0.6,15,0.7,30.1,1.1,45.1c0.3,8.5-2.2,16.4-4.8,24.3c-0.3,0.8-0.2,2.1-1.6,1.9
	c-0.2,0-0.4-1.4-0.4-2.1c0.1-12,0.1-24,0.3-36c0.1-6.4-0.3-12.8-2-19c-4.1-14.4-6.3-29.1-6.3-44c0-5.4-3.4-8.2-6.7-10.9
	c-2.8-2.3-2.9,0.9-3,2.7c-0.5,9,0,17.9,0.9,26.8c0.7,7.5,2.5,14.8,5.5,21.8c5.3,12.3,5.4,25.2,4.4,38.2c-1.1,13.4-1.2,26.8,1.9,40.1
	c2.3,10,1.6,20-1.7,29.8c-2.4,7.3-2.6,14.7,0.3,22.1c1,2.5,1.6,3.8,4.5,1.4c3.7-3,5-6.1,5-10.9c0.1-29.2,3.2-58.1,9.6-86.6
	c0.9-3.9,1.2-7.9,1.8-11.8c0.1-0.6,0.2-1.4,0.6-1.7c1-0.6,1.3,0.5,1.8,1c3.8,4.4,6.2,8.9,6.5,15.3c1.1,25.3-1.1,50.5-1.1,75.8
	c0,1.6-1.1,4.3,0.8,4.7c2,0.5,2.9-2.2,3.6-3.9c8.5-20.9,10.3-42.3,5.7-64.4c-0.7-3.3-1.5-6.5-2.2-9.8c-0.2-1-1.1-2.3,0.2-3
	c0.5-0.3,1.7,0.5,2.5,1c7.8,5.3,16.3,8.8,25.7,10.1c3.4,0.5,3,2.6,3,4.9c-0.1,24.4-5.7,47.5-17,69.2
	c-42.7,82.1-150.9,105.2-223.3,47.6 M364.9,590.3c0.1,0,0.2,0,0.2,0c-0.3,3.8-0.5,7.7-0.8,11.5c-0.1,0.9-0.5,1.9,0.7,2.5
	c2.9,1.4,8.2-1.6,8.3-4.9c0.3-9.8,1.9-19.5,7.3-27.5c3.6-5.3,4.1-10,3.5-15.6c-0.4-3.3-0.8-6.7-0.9-10c-0.4-8.6-3.2-16.9-2.2-25.7
	c1.3-11.2,1.3-22.5-1.6-33.4c-5.5-20.4-6.6-40.6,0-61c0.2-0.7,0.9-1.6,0-2c-0.3-0.2-1.3,0.8-1.8,1.3c-3.1,3.3-5.2,7.3-7,11.4
	c-6.9,15.6-7.8,31.8-4.5,48.4c0.5,2.3,0.9,3.9-2.3,4.4c-14,2.4-28,5-42,7.7c-2.8,0.5-3.6-0.2-2.9-2.9c1.3-5.6,2.4-11.3,3.9-16.8
	c5.2-18.6,2.5-36.4-4.5-54c-0.7-1.7-1.1-4.7-2.9-4.3c-1.5,0.3-0.6,3.3-0.6,5.1c0.6,25.7-1.3,51.2-5.4,76.6c-0.1,0.9,0,1.6,0.5,2.2
	c1.5,1.6,1.3,3.5,1.4,5.4c1.8,25.2,4.8,50.3,8.2,75.3c1.8,13.3,4.8,26.2,11.7,38c4.1,7,8.6,11.6,17.4,8.4c1.8-0.6,3.8-0.7,5.7-0.8
	c2.4-0.2,2.8-1.1,1.3-2.9c-2.9-3.6-5.4-7.6-8.7-10.9c-13-12.8-18.1-29-20.9-46.4c-2.9-17.7-3-35.7-6.3-53.3
	c-0.1-0.7-0.6-1.8,0.2-2.1c1-0.4,1.6,0.8,2.3,1.4c10.9,10.6,21.7,21.3,32.6,31.9c3.4,3.3,4.9,2.9,6.1-1.7c1.3-5.4,2.5-10.9,3.8-16.4
	c1.7-7.6,3.4-15.3,5.2-22.9c0.2-0.8,0.6-1.4,1-2.2c0.4,0.3,0.9,0.5,1,0.8c1.3,4.6,4.8,8.6,4.8,13.5c-0.1,12-0.8,24-1.5,36
	c-0.1,2.7-0.3,5.8-2.8,7.4c-4.3,2.8-5.3,7-5.8,11.5C365.9,579.1,365.5,584.7,364.9,590.3z M450.2,479.1c-0.3-6.9-0.6-13.7-1.1-20.6
	c-1.4-19.3-3.9-38.5-8.6-57.3c-0.4-1.4,0-3.4-2-4c-4.4-1.3-8.3,2.3-7.3,6.8c6.1,28.4,6.4,57.1,5.1,85.9c-0.6,12.1-2.9,23.8-6.6,35.2
	c-3.6,11.1-8,21.9-10.6,33.2c-3.1,13.9-7.1,27.5-12.7,40.6c-3.1,7.2-5.8,14.6-5.8,22.6c0,1.6-0.8,4.1,1.7,4.2
	c2.2,0.1,4.8,0.2,5.9-2.9c8.1-22.8,19.1-44.5,27.1-67.4C443.9,530.8,452.1,506,450.2,479.1z M414.4,478.7c0-18.6-1.8-37-7.7-54.8
	c-4.2-12.7-8.2-25.6-12-38.4c-1.6-5.4-5-2-7.7-1.9c-3.1,0.2-2.6,1.9-2.1,4.3c1.1,6,4.1,11.2,5.8,16.8c7.4,23.6,11.7,47.8,14.6,72.3
	c2.1,18.2,2.5,36.3-1.9,54.3c-2,8.2-2.8,16.7-3.1,25.2c0,1.1,0.2,2.1,0.3,3.2c1.7-0.4,1.4-1.9,1.7-3
	C409.5,531.2,414.5,505.3,414.4,478.7z M452.2,565.3c0.3-5.1,0.4-10.2-0.7-15.3c-0.2-1,0.2-2.7-1.2-2.8c-1.4-0.1-1.2,1.6-1.4,2.5
	c-3.6,15.9-6.8,31.8-8.3,48.1c-1.2,12.8,1.6,25.9-3.1,38.4c-1,2.6,1.5,2.7,2.8,2.5c2.5-0.3,6,2.9,7.3-1.6
	c4.4-15.9,8.4-31.8,6.3-48.6C452.8,581,452.7,573.1,452.2,565.3z M337.2,406.1c-0.5,23.3,4.2,46.9,7.7,70.6c0.1,0.9,0.2,1.9,1.1,2.5
	c0.1-0.9,0.2-1.7,0.2-2.6c-0.2-8.6-0.4-17.3,1.1-25.8c3.7-20.6,6.8-41.3,8-62.2c0.1-1.5,1.2-3.8-0.8-4.2c-2.6-0.4-5.4,0-8,0.7
	c-1.9,0.5-0.7,2.6-0.5,3.8c2.7,11.9,2.6,23.8,0.8,35.7c-0.1,0.7-0.3,2-0.6,2c-1.3,0.3-1.5-1-1.7-1.8c-0.7-3.1-1.5-6.2-2-9.4
	c-1.3-9-2.3-18.1-3.5-27.1c-0.1-0.7,0-1.9-1-1.8c-1.1,0.1-0.8,1.2-0.8,1.9C337.2,394.1,337.2,399.7,337.2,406.1z"/>
<path class="st1" d="M643.2,526c-14.5-18.3-32.3-30.7-56.6-31.1c-0.9,0-2.1,0.6-2.6-0.4c-0.5-1.1,0.8-1.6,1.4-2.2
	c5.5-4.9,10-10.7,13.9-17c2.7-4.3,8.1-4.9,12.4-6.7c2.5-1,4.2,2.4,6.2,3.9c3.8,2.9,7.5,5.9,11.2,9c18.3,15.2,39.6,18.3,62.3,15.8
	c1.3-0.1,3.6,0.2,3.5-1.6c-0.1-1.7-2.4-1.1-3.7-1.1c-17.5-0.5-32.7-6.7-45.6-18.7c-4.8-4.5-9.8-8.7-14.8-13
	c-2.2-1.9-2.8-3.1,0.3-4.8c12.5-6.8,24.3-14.8,35.5-23.6c1.5-1.2,2.9-1.7,4.8-1.5c16.7,1.8,31.9,7.7,46.2,16.4
	c2.1,1.3,2.7,2.5,1.5,4.6c-10.6,19.1-13.6,40.1-15,61.4c-0.5,8-3,15.7-2.4,23.8c0.1,0.7-0.4,1.8,0.6,2c1,0.2,1.1-0.9,1.4-1.6
	c7.8-20.9,17.2-41.4,19.5-64c0.5-4.6,1.6-9.1,3.3-13.5c2.1-5.5,2.1-5.6,6.5-1.9c22.7,19.3,37.7,43.2,44.4,72.3
	c18.1,78.2-37.7,155-117.7,161.4c-36.7,2.9-71-6.7-103.5-23.5c-21.9-11.3-41.3-26.2-58.9-43.4c-1.2-1.2-4.2-2.1-1.9-4.9
	c2.1-2.6,4-0.8,5.8,0.3c12.4,7.3,24,15.9,35.6,24.4c17.5,12.8,35.9,23.4,57.6,27.1c16.8,2.9,33.5,2,50.1-1.5
	c0.9-0.2,1.9-0.2,2.3-1.3c-0.9-0.3-1.8-0.6-2.7-0.8c-11.3-2.2-22.5-4.9-33.7-7.7c-19.9-5-36.2-16.4-52.3-28.4
	c-13.7-10.2-27.5-20.3-41.4-30.4c-2.1-1.6-3.2-2.7-1.3-5.3c5.5-7.5,10-15.6,13.6-24.2c1.3-3,2.5-3,4.8-1c4.8,4,9.7,7.8,14.6,11.7
	c9.2,7.2,19.3,12.5,30.9,14.6c17.9,3.1,34.1,10.6,50.3,18.4c5.1,2.5,10.6,3.6,16,5.2c10.5,3.1,21.2,5.4,31.9,7.9
	c1.7,0.4,3.4,0.8,5.2,1c0.7,0.1,1.7,0.7,1.9-0.4c0.1-0.4-0.6-1-1.1-1.4c-24.1-17.8-45.8-38.4-67.9-58.6
	c-14-12.7-30.7-21.2-46.9-30.6c-2.3-1.3-5-2-6.5-4.5c2.6-0.7,5,0.3,7.5,0.6c14.5,1.3,29,2.3,43.4,4.3c23.8,3.3,44.8,13.5,63.4,28.6
	c4.1,3.3,8.5,6,12,10c0.4,0.5,0.9,1.4,1.8,0.9c0.1-0.1-0.3-1.4-0.7-2.1c-10-17.8-24.5-30.4-43.8-37.5
	c-31.4-11.5-63.6-19.4-96.9-22.6c-2-0.2-5.3,0.8-5.7-1.5c-0.3-1.5,3.3-1.8,5.2-2.3c17.8-5,35.8-8.9,54.4-6.8
	c13,1.5,24.5,7.1,34.9,14.8C639.5,524.4,640.9,526.3,643.2,526c-0.1,0.7,0.3,1,1,1c0.1,0.2,0.2,0.4,0.3,0.5c0-0.1,0-0.2,0-0.3
	c-0.1-0.1-0.2-0.1-0.3-0.2C643.8,526.6,643.5,526.3,643.2,526z M744.6,518.1c0.2-8.8-0.9-16.4-3.1-23.8c-0.4-1.4-0.2-3.8-2-3.8
	c-1.1,0-0.6,2.5-0.6,3.9c-0.6,14.3-2.5,28.3-8.3,41.6c-1.2,2.7-2.9,5-3.6,8.1c-3.1,12.9-1,25.5,1.1,38.1c2.3,13.7,2.6,27.1-3.2,40
	c-2.6,5.8-4,12-5.1,18.2c-0.1,0.6,0,1.1,0,1.7c0.5-0.4,1.1-0.7,1.4-1.2c4.4-7.2,9-14.2,12.8-21.8c8.6-17.1,12.4-34.9,7.5-53.8
	c-1.8-7-2-13.9-0.6-20.9C742.4,535.4,744.6,526.4,744.6,518.1z M667.9,660.2c0.8-0.2,1.9,0.6,2-0.4c0.2-0.9-1-1-1.7-1.3
	c-13.2-5.7-26.3-11.4-39.5-17.2c-15.5-6.7-31-13.5-46.5-20.2c-1-0.4-2.2-1.6-3-0.6c-0.9,1,0.6,1.9,1.2,2.7
	c3.9,4.9,8.5,9.2,13.7,12.6C616.6,650.4,642,656.2,667.9,660.2z"/>
<path class="st1" d="M365.7,816.9c5.9,4.6,12.2,8.7,18.4,12.9c14,9.6,29.2,7.9,44.4,4.8c14.9-3,29.2-8.2,43.8-12.6
	c19.8-6,39.6-6.5,59.8-2.7c4.6,0.9,1.8,2.5,0.7,3.9c-12.7,15.6-27.8,28.4-46,36.9c-48.7,22.8-95.8,19.3-141.1-9.3
	c-0.5-0.3-1.1-0.7-1.6-1.1c-0.4-0.4-0.7-0.9-1.1-1.4c0.6,0.1,1.2,0.1,1.8,0.4c2.2,0.9,4.5,1.8,6.6,2.8c16.2,7.9,33.1,10.3,50.9,6.5
	c17.5-3.7,35.2-6.7,52.5-11.3c1.1-0.3,3.2-0.1,3-1.5c-0.1-1-2.2-0.3-3.4-0.2c-16.1,1.6-32.1,3.2-48.2,5.1
	c-18.9,2.2-36.1-2.1-53.1-9.6c-10-4.4-19.9-8.7-30.5-11.6c-2.4-0.6-3.8-2.2-5.2-3.9c-30.5-38.1-38.7-80.8-26-127.7
	c4.6-16.9,10.6-33.2,18.2-48.9c1.6-3.3,3-4,6-1.9c1.4,1,3.1,1.7,4.6,2.5c7.8,3.9,7.8,3.9,5.3,12.1c-3.9,12.7-8.9,25-15,36.8
	c-14.3,27.6-15.4,55.6-4.3,84.4c3.8,10,7.5,20.1,11.8,29.9c0.2,0.5,0.1,1.6,0.9,1.3c0.7-0.3,0-1-0.1-1.6c-1.4-9.7-4-19.1-6.5-28.5
	c-6.4-24.2-2.2-46.8,9.9-68.3c4.6-8.2,9.7-16.1,14.6-24.2c0.9-1.5,1.7-3.1,3.1-0.4c3.7,6.9,10,7.8,16.9,7c1.9-0.2,3.8-0.6,5.7-0.8
	c0.1,0.1,0.3,0.2,0.4,0.4c-1.8,3.9-3.6,7.8-5.5,11.7c-10.2,21-10.6,43.6-9.7,66.2c0.3,7,0.9,14.1,2.4,21c0.3,1.4-0.5,3.9,1.5,4
	c1.1,0.1,0.7-2.4,1-3.7c4.3-22.1,7.2-44.5,14.9-65.8c4.9-13.6,10.6-27,15-40.8c0.8-2.5,11.5-8.7,13.9-8.2c2.3,0.5,2.2,2.4,2.1,4.2
	c-0.4,5.4-0.8,10.8-1.1,16.3c-0.9,20.8-1.7,41.6-2.8,62.3c-0.6,10.9-3.7,21.4-6.2,32c-0.3,1.2-1.2,3.2-0.2,3.4
	c1.2,0.3,1.4-1.8,1.8-2.9c11.6-31,19.8-62.8,24.4-95.5c0.6-4.4,1.4-3.7,4.7-2c5.1,2.6,6.3,5.8,5.2,11.3c-4.7,24.6-3.7,49.7-6.7,74.5
	c-0.8,6.4-1.6,12.7-3.8,18.8c-0.3,0.8-1.2,1.9-0.1,2.6c0.9,0.6,1.8-0.3,2.5-0.9c2.1-2,4.3-3.9,6-6.2c9-12.6,20.7-22.6,31.7-33.3
	c4.5-4.4,7.6-9.4,9.5-15.2c4.1-12.3,7.8-24.6,10.3-37.3c0.2-1.2,1.2-2.9-0.1-3.5c-1.3-0.5-2.5,0.8-3.2,2.1
	c-3.5,6.1-5.5,12.8-7.6,19.5c-3.2,10.4-6.7,20.6-13.7,29.3c-5.8,7.2-13,12.8-20.4,18.1c-0.5,0.3-1.3,0.7-1.6,0.5
	c-1.2-0.7-0.7-2-0.6-3c0.9-8.4,1.9-16.8,3-25.2c1.8-13.6,4.1-27.2,4.6-41c0.1-3.3,1.2-3.7,4.1-2.8c4.5,1.4,9.1,2,13.8,1.4
	c7.8-1.1,12.9-6.3,12.8-14.2c-0.1-13.9-6.2-25.7-14.8-36.1c-3-3.7-2.5-4.8,1.6-6.4c7.9-3.1,15.3-7.4,22.3-12.2
	c2.9-2,3.7-1.2,4.1,1.8c2.7,19.5,5.5,39,5.1,58.7c-0.5,27.8-0.3,55.7,2.8,83.4c0.5,4.4,1.1,8.9,2.6,13.2c0.3,0.8,0.2,2.3,1.5,2.1
	c1.2-0.2,0.7-1.5,0.8-2.4c2.6-21.3,5-42.6,7.7-63.8c3.5-27.6,7.3-55.2,10.8-82.8c0.5-3.9,1.2-4.2,4.3-1.7c8.5,7.1,17.4,13.6,27,19.1
	c3.1,1.8,4.1,3.9,3.9,7.3c-1.8,21.2-3,42.4-2.2,63.7c0.2,5.3,0.7,10.5,1.1,15.8c0.1,1.5-0.1,4.1,1.3,4.2c1.8,0.1,1.5-2.4,1.8-3.9
	c2.8-13.2,3.9-26.6,5.5-39.9c1-7.6,1.7-15.3,2.6-22.9c0.1-0.9-0.5-2.5,0.9-2.7c0.9-0.1,1,1.4,1.3,2.3c8,26.1,9.8,52.4,2.8,79
	c-3.1,11.8-7.7,23-13.6,33.7c-1.4,2.6-3.1,3.5-6.1,3.3c-27.3-2.1-53.8,2.7-80.1,9.7c-10.9,2.9-21,8.4-32.3,10.2
	c-20,3.1-39.1-0.1-57.3-8.7C368.7,817.9,367.2,817.4,365.7,816.9c0,0-0.1-0.1-0.1-0.1L365.7,816.9z M512.4,772.8
	c0,5.1,0,10.2,0,15.3c0,0.5,0.3,1.1,0.5,1.6c0.3-0.5,0.7-1,0.9-1.5c0.8-2.9,1.6-5.9,2.3-8.8c3.4-14.4,8.3-28.6,9.6-43.4
	c1.4-16.1-1.8-31.1-11.2-44.6c-0.4-0.5-1.1-1.3-1.3-1.3c-1,0.5-0.2,1.3-0.1,1.9c3.9,13.3,5.1,27,3.7,40.8
	C515.5,746.2,511.5,759.2,512.4,772.8z"/>
<path class="st1" d="M685.5,317.7c-1.1,0-2.2,0.1-3.1,0.9c-18.9,15.7-40.5,27.2-61.6,39.6c-14.8,8.7-29,18.1-42.3,29.1
	c-2.6,2.1-4.5,2.4-7.6,0.9c-10-4.8-20.6-6.8-31.7-5.7c-0.6,0.1-1.4,0.6-1.9-0.3c0.6-0.3,1.1-0.6,1.7-0.8c4.2-0.9,8.5-2,12.8-0.9
	c1.9,0.5,3.5-0.1,5-1.1c1.6-1,3.2-2.2,4.6-3.4c11.3-9.4,22.1-19.3,35.2-26.2c5.5-2.9,9.9-7.6,13.8-12.5
	c10.3-12.9,23.4-21.4,39.4-25.7c1.1-0.3,3.2-0.1,3-1.6c-0.1-1.4-2.1-0.9-3.3-1c-20.1-1.7-36.1,6.3-49.3,20.8
	c-4.5,5-8.6,10.4-11.7,16.3c-2.1,4-5,6.9-8.9,9c-7.5,4.2-15,8.6-22.5,12.9c-2.6,1.5-5.3,2.2-8.2,0.5c-2.5-1.5-4.9-0.6-7.4,0.3
	c-8.5,3.1-15.9,8.3-23.9,12.3c-2.3,1.1-1.7,2.4-0.3,3.6c2,1.8,1.9,2.8-0.6,4c-6.4,3-12.1,7.2-17,12.3c-1.6,1.7-2.7,2.1-4.6,0.2
	c-4.3-4.1-8.9-7.8-13.4-11.6c-1.3-1.1-2.8-2,0-3.3c20.9-9.8,37.3-25.7,53.8-41.3c18-17.1,35.1-35,50.5-54.5c0.5-0.7,1-1.6,2-1.7
	c-0.1,0.6,0,1.3-0.3,1.8c-9.2,20.5-18.9,40.7-35.1,56.8c-8.2,8.2-17.6,14.7-27.7,20.2c-0.7,0.4-1.9,0.4-1.8,1.7
	c0.8-0.1,1.6,0,2.3-0.3c23.8-9.2,43.8-23,56.9-45.8c9.1-15.9,15.5-32.5,19-50.4c0.2-1.2,1.1-2.7,0-3.6c-1.2-0.9-2.4,0.4-3.5,0.9
	c-12.1,6.1-21.5,15.5-30.3,25.5c-12.8,14.7-25,29.9-37.6,44.7c-14.8,17.3-32.9,30.7-52.5,42.2c-2.3,1.3-3.9,1.2-6.1-0.2
	c-7.7-5-15.7-9.3-24.2-12.5c-3.1-1.2-3.4-2.4-1.8-5.2c15.7-26.9,31.4-53.9,46.7-81c7.8-13.7,16.5-26.9,23.3-41.2
	c0.4-0.7,1.8-1.4,0.7-2.3c-0.9-0.7-1.7,0.4-2.3,1.1c-10.2,11.5-20.8,22.6-30.3,34.7c-20.5,26.2-38.4,53.9-50,85.3
	c-0.9,2.5-2.2,3.1-4.7,2.4c-11.3-3.3-10.8,0.2-7.7-12.4c7.8-31.5,22.7-59.7,41-86.2c10.7-15.5,21.8-30.9,35.8-43.8
	c40.1-36.9,95.8-44.3,144-22.8c3.8,1.7,5.9,4.8,7.9,8.1c9.5,15.6,18.4,31.5,29.8,45.8c6.8,8.6,14.7,16.1,23.9,22
	c10.7,6.7,16.2,16,16.7,28.8c0.5,13.7-0.2,27.2-3,40.5c-0.2,1.1-0.2,2.7-1.3,2.9c-1.1,0.1-1.4-1.5-1.9-2.5
	c-10.5-20.3-19.8-41.3-31.5-61c-16.3-27.6-38.5-48.8-68.6-61.1c-3.6-1.5-7.4-2.7-11.1-4c-0.8-0.3-2-1.3-2.5-0.3
	c-0.4,0.7,0.6,1.6,1.6,2c7.6,3.5,13.9,8.9,20.2,14.3c11.6,9.9,21.6,21.2,30.9,33.2c11.5,14.9,19.3,32.2,31.5,46.5
	C685.6,315,686,316.3,685.5,317.7L685.5,317.7z M640.4,289.8c-0.2,0.6-0.2,0.9,0.5,0.6C640.7,290.2,640.5,290,640.4,289.8
	c-3.7-4.9-7.2-9.9-11.1-14.7c-12.5-15.5-23.4-32.4-38.8-45.5c-15.8-13.5-33.6-22-54.7-22.3c-0.9,0-1.8,0.2-2.7,0.4
	c0.4,1.1,1.5,1.1,2.3,1.3c14.7,5.2,27.4,13.5,39.5,23.2c7.9,6.3,14.8,13.5,21.4,21.1c10.4,12,23.2,21.4,35.4,31.3
	C634.2,286.5,636.5,289.7,640.4,289.8z M568.1,239c-0.4,0.3-0.8,0.5-1.2,0.8c-10,6-19.6,12.5-28.8,19.7c-9.8,7.7-17.7,16.6-19,29.8
	c-0.3,2.7-1.8,5-3.4,7.3c-12,18-25.1,35.1-39.3,51.3c-1.5,1.7-4,3.2-3.6,6c0.9,6.2,2,12.3,3.1,18.4c0.1,0.5,0.4,1.4,0.8,1.4
	c0.8,0.2,0.9-0.7,1.1-1.3c0.4-1.1,0.7-2.1,1-3.2c6.2-21.9,16.9-41.4,33-57.6c11-11,20.3-22.9,23.7-38.5c0.7-3,2.5-5.4,4.4-7.8
	c7.8-9.8,17.7-17.4,27.5-25c0.5-0.4,1-0.8,1.4-1.3C568.6,239,568.4,239,568.1,239z"/>
<path class="st1" d="M298.8,202.6c20.8-0.2,41,3.4,60.4,11.3c1.4,0.6,3.9,0.7,3.8,2.3c-0.1,1.6-2.5,1.3-3.9,1.7
	c-18.9,5.4-37.7,11.2-55.1,20.9c-2.4,1.3-6.8,2.5-5.9,5.1c0.6,2,4.7-0.4,7.2-1c26.4-6.9,53.5-8.9,80.5-10.8c3.4-0.2,6.1,0.5,8.9,2.6
	c18.4,13.8,33.4,30.6,45.2,50.4c1.4,2.4,1.5,4.2,0.1,6.6c-6.1,10.7-11.4,21.8-15.7,33.4c-1.1,2.9-2,3.6-4.5,1.1
	c-3.9-3.8-7.9-7.4-12-11c-7.9-6.9-13.1-15.6-17.1-25.2c-6.6-15.9-17.6-28.4-31.2-38.8c-2.1-1.6-3.4-4.2-6.2-5
	c0.5,2.9,2.3,5.2,3.7,7.5c5.8,9,11.9,17.8,17.7,26.7c5.5,8.3,12,16.2,16.3,25c6.1,12.6,15.7,21.6,25,31.1c2.1,2.2,2.9,4.2,1.9,7.2
	c-1.4,4.2-2.5,8.6-3.3,13c-0.5,3-1.9,3.7-4.6,3.1c-1.4-0.3-2.9-0.8-4.3-0.6c-10.3,1.6-14.1-3.9-16.8-13.1c-5.1-17-16.3-30.6-28-43.6
	c-13.5-15-27.6-29.3-42.4-43c-0.9-0.8-2-2.6-2.9-1.7c-0.9,0.8,0.8,2.1,1.5,3.1c12.1,17.2,24.4,34.3,36.4,51.7
	c8.9,12.9,17.2,26.2,22.5,41.1c0.5,1.5,2.8,3.7,0.3,4.9c-2.1,1-4.8,1.3-6.8-1.5c-4.6-6.6-9.5-12.8-14.1-19.4
	c-9.8-13.9-21.2-26.3-34.8-36.8c-13-10.1-25-21.5-36.7-33.1c-0.8-0.7-1.5-2.3-2.6-1.6c-1,0.6-0.2,2.1,0.1,3.1
	c4.4,13,8.1,26.5,15.4,38c8.4,13.4,15,27.4,20.3,42.1c2.4,6.6,7.2,11.7,12.1,16.5c2.3,2.2,2.8,3.3-0.7,4.9
	c-10.5,4.7-10.3,4.7-19.1-3c-13.3-11.6-23.8-25.9-36.1-38.5c-4.5-4.6-9-9.1-13.4-13.6c-1-1-2.9-2.7-3.3-2.2c-1.3,1.6,0.8,2.8,1.6,4
	c5.1,7.3,10.5,14.4,15.8,21.6c9.8,13.6,19.6,27.3,29.5,40.9c1.7,2.4,1.7,3.6-0.8,5.2c-7.6,5-14.7,10.8-21.1,17.3
	c-1.8,1.8-2.8,2-4.4-0.2c-4.5-6.3-10-11.7-16.4-16c-1.7-1.2-2.5-2.9-3.2-4.7c-2.1-5.4-2.8-11.1-3.3-16.9c-1.5-17.8-8-32.8-23.7-42.7
	c-5.8-3.6-12.4-4.8-19.1-5.5c-0.7-0.1-2,0-2.1,0.4c-0.4,1,0.9,1.1,1.4,1.5c3.4,2.8,8.1,3.5,11.3,6.8c3.2,3.3,5.2,6.2,2.1,10.8
	c-1.9,2.9-3,6.3-3.7,9.8c-1.5,7,0.2,13,5.3,18c3.1,3,6.3,5.9,9.5,8.8c0.7,0.6,1.8,1.2,1.3,2.3c-0.2,0.3-1.5,0.2-2.2,0.1
	c-12.6-2.3-24.9-1.4-36.8,3.3c-2.7,1-3.6,0.2-4.7-2.1c-6.1-13-9.7-26.7-11.3-41c-0.3-2.4,0.8-3.9,2.4-5.4
	c11.3-11,24.1-19.9,38.6-25.8c16.7-6.8,31.3-16.8,46.2-26.5c0.6-0.4,1-1.1,1.6-1.7c-0.8-0.4-1.5-0.2-2.2,0.1
	c-15.8,5.7-31.7,11.2-47.3,17.3c-14.5,5.6-27.2,14.1-36.9,26.7c-0.5,0.7-1,2.1-2,1.7c-1.3-0.5-0.6-1.9-0.6-3
	c1.1-24.5,8.8-46.8,22.9-66.7c18-25.5,42.1-42.1,73-48.2c3-0.6,6-1.1,9-1.3C290.5,202.5,294.6,202.6,298.8,202.6z M199.6,285
	c2.3-1.3,4.7-2.5,7-3.9c11.3-7,23.2-12.5,36.5-14.5c1.8-0.3,3.5-1.2,5.2-1.9c9.6-4.4,16.6-12.2,24.1-19.3
	c7.4-7.1,15.3-13.4,25.4-16.3c5.7-1.6,11.2-3.7,16.8-5.7c0.8-0.3,2.4-0.4,2.2-1.4c-0.3-1.5-1.8-0.8-2.8-0.7
	c-5.3,0.4-10.5,1-15.7,1.6c-16.9,2-32,7.9-43.6,20.9c-5.5,6.1-11.8,10.7-19.3,13.9c-4.4,1.9-8.8,3.9-13,6.3
	C213.3,269.1,205.1,275.5,199.6,285l-0.1,0.2L199.6,285z"/>
<path class="st1" d="M695.9,727.7c0.2-5.3-3.1-9.6-4.2-14.5c-1.2-5.1-3-10.1-4.9-15.1c-0.9-2.5-0.6-3.7,2.1-4.5
	c16.2-5,30.9-12.9,44.3-23.3c0.7-0.6,1.4-1.7,2.4-1.1c1,0.6,0.4,1.7,0.3,2.6c-2.4,14.4-6,28.5-13,41.5c-7.5,14-10.9,29.4-15.9,44.3
	c-0.2,0.6-0.1,1.2-0.1,1.9c0.4-0.4,1.1-0.7,1.3-1.2c11.3-21.5,27-41,30.4-66.1c1-7.5,1.8-15,0.9-22.5c-0.4-3.2,0.6-5.3,2.9-7.5
	c2.3-2.2,3.4-1.8,5,0.7c10.9,16.4,18,34.3,20.5,53.8c7,55.4-18.6,105.2-67.4,132c-49.6,27.2-116.4,16-154.2-25.7
	c-1.5-1.6-1.9-2.5-0.6-4.8c2-3.3,4.3-6.3,4.5-10.8c0.1-5.1,3.1-5.9,7.1-2.4c16.7,14.7,35.3,26.5,56,34.8c1.8,0.7,3.5,1.5,5.4,2
	c1.3,0.4,3.2,1.9,3.9,0.7c0.9-1.5-1.3-2.6-2.3-3.7c-13.7-14.3-27.5-28.6-41.3-42.8c-4.7-4.8-9.3-9.7-14.1-14.4
	c-1.8-1.7-2.4-3.2-1.7-5.8c5.9-21.3,7.4-42.8,3.3-64.6c-0.2-1.1-0.5-2.8,0-3.2c1.3-1,2.2,0.7,3.1,1.3c5.3,3.6,10.2,7.8,15.7,11
	c18.4,10.7,31.5,25.7,41.2,44.7c10.1,20,23.7,37.8,42.6,50.7c3,2.1,5.9,4.2,8.9,6.4c-1.5-3.5-4.8-5.5-7.3-8.2
	c-9.2-9.6-16.5-20.7-23.2-32.1c-10.5-17.8-23-34.2-33.6-52c-0.9-1.5-1.8-3.1-2.4-4.7c-0.5-1.2-1.9-2.8-0.6-3.9
	c1.5-1.2,3,0.4,4.1,1.3c3.4,2.7,6.3,5.9,9.1,9.2c9.9,11.8,18.4,24.6,27.5,36.9c4,5.5,8.5,10.7,14.9,13.7c0.7,0.3,1.8,0.8,2.1,0.6
	c0.8-0.6,0.5-1.9,0.1-2.6c-0.7-1.2-1.6-2.4-2.5-3.4c-13.1-13.4-24.4-28.3-34-44.4C622,715,608,701.2,590.4,691.1l-0.1,0.1
	c2.8-0.9,5.3,0.8,7.9,1.3c6.3,1.3,12.4,3.3,18.7,4.1c5.2,0.7,8.7,2.9,11.7,7.1c8.3,11.3,16.4,22.8,25.5,33.4
	c7.6,9,16.4,17,28.4,20.4c3.8,1.1,7.6,1.3,11.4,0.6c1.2-0.2,2.9-0.5,3-1.9c0.1-1.7-1.7-1.5-2.9-1.8c-8.4-2.1-16.7-4.6-23.4-10.5
	c-12.5-11.2-22.7-23.8-26.7-40.6c-0.7-2.8-0.3-3.7,2.7-3.6c8,0.3,16-0.3,23.9-1.8c3.1-0.6,4.6,0.6,6,3.1
	C681.9,710.6,688.4,719.6,695.9,727.7c0.1-0.1,0.3,0,0.3,0L695.9,727.7z M745.7,734.3c0-0.5-0.1-1.1-0.1-1.1c-0.9,0-1.2,0.8-1.6,1.5
	c-5.1,8.2-10.2,16.3-15.3,24.5c-11.8,18.8-23.6,37.5-35.4,56.3c-0.5,0.8-1.2,2.2-0.9,2.5c0.8,0.8,1.7-0.3,2.4-0.7
	c7.3-4.4,13.9-9.5,19.1-16.2c13-16.6,21.7-35.5,28.4-55.5C743.4,741.8,744.5,737.9,745.7,734.3z M582.9,759.4
	c-1.5,0.2-1.3,0.7-0.7,1.4c0.8,1,1.5,2.1,2.4,2.9c13.4,10.6,23.5,24.6,36.6,35.5c8.5,7,14,16.4,19.9,25.5c2.7,4.2,6,7.9,10.7,9.8
	c1.4,0.6,3.7,2.4,4.5,0.6c0.7-1.5-2.2-1.6-3.4-2.4c-0.6-0.4-1.1-1.2-1.6-1.7c-6.8-6.1-10.5-14.4-15.4-21.8
	c-7-10.6-13.6-21.5-22.8-30.6c-5.5-5.4-12.6-8.6-18.4-13.5C591.5,762.4,586.8,761.2,582.9,759.4z"/>
<path class="st1" d="M205.5,723.9c-11,0-18.6-1-26.2-2.3c-2.5-0.4-4.6-1.2-5.7-3.7c-8.4-18.6-20.7-34.8-32-51.6
	c-6.8-10.1-10.3-21.9-13.8-33.5c-4.7-15.4-11.2-29.9-19.6-43.6c-5.5-8.9-8.7-18.4-9.8-28.7c-0.8-7.4-2.3-14.5-5.6-21.2
	c-1.1-2.2-0.9-4.1,0.3-6.3c15.2-26.6,37.8-44.6,65.4-57.1c2.1-1,3.1-0.4,4.2,1.5c2.2,4.1,5.1,7.8,8.2,11.2c3.9,4.3,3.9,4.3-1.1,7.8
	c-11,7.8-21.5,16.1-31.5,25.1c-12.5,11.2-20.6,25.4-27.9,40.2c-0.3,0.6-0.4,1.5,0.2,1.6c1.2,0.2,1.4-1.1,1.8-1.9
	c6.3-11,14.2-20.8,23.3-29.5c7.1-6.8,15.7-11.6,23.7-17.2c6.7-4.6,13.7-8.9,20.4-13.5c2.3-1.6,4.1-1.6,6.5-0.1
	c3.4,2.1,7.1,3.6,10.7,5.4c0.9,0.5,2.6,0.4,2.6,1.7c0,1.2-1.6,1.4-2.5,1.9c-4.3,2.2-8.5,4.5-12.9,6.4c-16.7,7-29.3,19.2-41.2,32.3
	c-1.6,1.8-2,2.6,1,3.2c4,0.8,7.1,0.4,10.5-2.4c17.1-14.1,37.6-20.2,59-23.4c5.5-0.8,10.8,2.6,16.1,4.2c2.7,0.8,6.5,0.6,7.6,3.4
	c1.6,4.1,2.2,8.7,2.8,13.1c0.3,2.4-2.1,1.9-3.6,2.1c-28.3,4.7-56.3,10.6-84,17.6c-3.8,1-8.6,0.5-11,4.8c-0.5,1-1.6,2.5-1.3,2.9
	c0.9,1.2,2.3,0.1,3.4-0.2c13.3-3.7,26.2-9.3,40-11.1c18.5-2.5,37.2-4.2,55.5-8.1c2.2-0.5,3.1,0.3,3.9,2.3c3.7,9.6,3.8,9.6-5.7,13.2
	c-17.7,6.6-35.5,12.9-53.6,18.2c-12.4,3.6-25.1,4.8-37.9,5.6c-3.4,0.2-6.7,0.2-10.1,0.6c-1.6,0.2-4.3-0.2-4.4,1.7
	c-0.1,1.7,2.5,2.7,4.2,3.1c7,1.6,14.1,2.8,21.1,4.3c7.4,1.6,14.6,1.7,21.6-1.5c1.2-0.5,3-1.7,3.9-0.2c0.8,1.4-1.1,2.5-2.1,3.4
	c-2.7,2.3-5.2,4.8-8.2,6.6c-5.9,3.5-8.1,8.5-7.7,15.1c0.2,3.4,0.2,6.7,0.2,10.1c0,8.1-1.9,15.8-5.7,23c-0.8,1.4-1.3,3.4-0.5,3.9
	c1,0.7,2-1.2,2.8-2c9.3-10,15.4-21.1,11.8-35.3c-0.5-1.9,0.4-3.1,1.4-4.3c6.6-7.6,13.2-15.2,19.9-22.7c1.1-1.3,2.7-2.3,4.3-3
	c2.9-1.4,6.9-2.9,9-1c1.7,1.6-1.6,4.7-2.9,6.9c-6.9,12.1-12.3,24.9-18.2,37.5c-6.7,14.5-10.8,30-18.4,44.1c-1.3,2.4-1.9,5.1-2.8,7.6
	c-1.2,3.5,1.8,4.9,3.8,5.6c2.5,0.9,2.1-2.1,2.5-3.5c4.4-17.3,12.4-32.9,21.9-48c6.2-9.8,11.5-20.2,16.7-30.6
	c4.5-9,11.2-15.9,19.1-21.7c6.1-4.4,12.4-8.5,18.4-13.1c3.1-2.4,4.3-1.5,5.9,1.7c4.9,9.8,10.8,18.9,18,27.1c2.4,2.7,2,4.3-0.4,6.6
	c-15.5,15.2-29.1,31.9-40.6,50.3c-5.9,9.5-11.2,19.4-14.2,30.3c-0.3,1-1.3,2.6-0.4,3.1c1.1,0.6,1.6-1.1,2.2-2
	c18.7-25.8,40.8-48.4,64.6-69.3c2.9-2.6,4.6-2.6,7.5,0c4.4,3.9,9.2,7.4,14.1,10.8c2.4,1.7,3.1,2.9,1.7,5.8
	c-4.3,9.1-8.6,18.2-12.2,27.5c-2.4,6.1-3.7,12.5-5.4,18.8c-0.6,2.1-1.4,3.8-3.4,4.9c-7.9,4.6-15.6,9.4-23.6,13.9
	C242.7,720.4,222.5,722.7,205.5,723.9z"/>
<path class="st1" d="M753.8,353.7c29.7,0,57,7.4,80,27.1c19.6,16.8,30.7,38.5,36.4,63.3c7.4,32.1,4.8,62.9-11,92.2
	c-0.6,1.2-0.9,3.4-2.5,3.2c-1.4-0.2-1.2-2.4-1.5-3.7c-5-20.3-8.8-41-15.3-60.9c-1.9-5.8-4.2-11.4-7.7-16.4
	c-4.9-7-12.4-10.2-19.9-8.4c-2.4,0.6-3.4,0.7-1.3,3.4c5.5,7.3,8.4,16,12.2,24.3c3.7,8.1,4.9,16.8,9,24.7c4.2,8,5,17.3,8,25.8
	c2.5,7.2,4.4,14.5,6.7,21.8c0.8,2.6,0.4,4.4-1.4,6.5c-16,19-35.9,32-59.7,39.3c-3.6,1.1-5,0.9-3.7-3.4c1-3.3,1.6-6.9,2-10.3
	c0.3-2.6,1.3-4.4,3.2-6.1c7.4-6.8,14.6-13.8,21.2-21.4c0.8-0.9,2.6-1.9,1.7-2.8c-0.6-0.7-2.1,0.9-3.1,1.6
	c-6.2,4.3-12.3,8.6-18.4,12.9c-0.9,0.6-1.6,1.9-2.8,1.2c-1.1-0.7-0.3-2.1-0.5-3.1c-1.9-9,2-15.1,8.7-20.9c11.5-10,20.3-22.4,28-35.6
	c0.5-0.8,1.2-2.2,0.9-2.5c-1.2-1.1-2,0.4-2.7,0.9c-11.3,7.8-22.7,15.5-33.9,23.5c-3.2,2.3-4.2,2.1-5.2-1.9c-1.3-5.3-3-10.5-5-15.5
	c-1.1-2.8-0.7-4.3,1.7-6c11.9-8.6,24-17.2,36.5-25c0.8-0.5,2.6-0.6,2.2-2c-0.4-1.7-2.1-1.1-3.3-1.1c-15.1-0.5-28.7,4-41.3,12.1
	c-3.7,2.4-5.7,2.6-8-1.6c-2.1-3.9-4.9-7.5-7.7-11c-2-2.4-1.8-3.4,1.1-4.8c9.3-4.5,18.9-8.7,27.6-14.5c8.5-5.7,16-12.3,20-22
	c1.3-3,1.8-6.1,1.5-9.4c-0.1-0.9,0-2.2-1.1-2.4c-1.2-0.3-1.5,0.9-2,1.7c-2.3,4.2-4.4,8.4-7.2,12.3c-11.8,15.9-28.4,23-47,26.9
	c-1.2,0.2-2.8,0.7-3.6-0.5c-0.9-1.3,0.5-2.4,1.1-3.4c13.6-22.3,24.1-46.1,32.6-70.7c0.8-2.2,1.9-4.3,2.7-6.6
	c0.4-1.1,1.7-1.9,0.9-3.3c-1.1,0.7-2.3,1.2-3.2,2c-12.2,12-24.3,24-36.4,36c-2.4,2.4-5,4.4-8.2,5.7c-8.4,3.3-16.2,7.7-23.9,12.3
	c-2.1,1.3-11.1-0.6-12.1-2.7c-0.9-1.9,1.1-2.4,2.1-3.2c8.8-7.7,17.4-15.7,24.4-25.1c5.1-6.8,9.3-14.1,15.3-20.2
	c6.5-6.6,13.4-12.6,21.7-16.8c0.7-0.3,1.2-1,1.8-1.5c-0.8-0.8-1.7,0-2.3,0.2c-11.2,3.7-22,8.3-30.7,16.6
	c-14.8,13.9-28.7,28.7-44.4,41.7c-2.8,2.3-5.5,4.5-9.4,2.8c-0.8-0.3-2.1,0.2-2.5-1c-0.3-1.1,0.9-1.6,1.5-2.2
	c5.3-4.9,10.3-10,14.9-15.6c11.6-14.3,20.1-30.3,25.6-47.9c1.1-3.6,3-5,6.5-5.8C733.7,354.7,743.7,353.7,753.8,353.7z M854.7,477.5
	c-2-11.3-4.4-23-9.5-34c-10.4-22.5-26.9-40.5-43.2-58.7c-0.5-0.6-0.9-1.9-2.1-1.1c-0.2,0.1,0.3,1.4,0.6,2.1c5,8.2,10,16.3,14.9,24.5
	c13.3,22.2,22.6,46.4,35.2,68.8c0.7,1.3,0.9,3.8,2.8,3.2C855.3,481.8,854.3,479.5,854.7,477.5z"/>
<path class="st2" d="M285.3,442.5c0,35.1-28.3,63.5-63.4,63.6c-35.4,0.1-64-28.4-64-63.6c0-35.3,28.5-63.7,63.8-63.6
	C256.9,379,285.3,407.4,285.3,442.5z M199.9,406.9c-13.3,0.1-23.9,11.1-24,24.3c-0.1,15,12.4,23.8,24.2,23.8
	c13.2,0.1,24.1-10.9,24-24.2C224,417.6,213.1,406.8,199.9,406.9z"/>
<path class="st2" d="M602.1,444.7c0,31.8-25.7,57.7-57.6,57.8c-32,0.2-58-25.8-57.9-57.9c0.1-31.9,25.9-57.6,57.8-57.6
	C576.2,387,602.1,412.9,602.1,444.7z M572.9,454.3c0-10.5-8.6-19.2-19.2-19.4c-10.7-0.1-19.6,8.6-19.6,19.4
	c0,10.8,8.8,19.5,19.6,19.3C564.4,473.5,572.9,464.8,572.9,454.3z"/>
<path class="st1" d="M685.4,317.8c2-1,2.8,0.6,3.9,1.8c7.9,9.5,15.7,19,23.7,28.3c2.1,2.4,2.2,4.5,1.4,7.4
	c-9.4,34.2-29.5,60.6-58,81c-15.4,11-31.6,20.6-48.8,28.5c-1.1,0.5-2.3,1.8-3.4,0.9c-1-0.8,0.1-2.1,0.4-3.1c1.7-6,2.6-12.2,2.6-18.5
	c0-2.3,0.7-3.8,2.7-5.1c12.3-7.8,22.6-17.7,31-29.7c13-18.6,30.6-30.6,52.3-36.8c1.2-0.3,3.4-0.2,3.2-1.9c-0.1-1.2-2.2-0.9-3.4-1.2
	c-14.1-2.7-27.3,0.3-40.1,6.3c-18.1,8.5-29.5,23.6-39.4,40.2c-2.2,3.7-4.1,7.6-6.1,11.4c-0.4,0.6-0.5,1.7-1.5,1.6
	c-1-0.1-1-1.2-1.2-1.9c-3.7-12.1-10.4-22.3-20.1-30.3c-1.8-1.5-1.1-2.4,0.1-3.8c10.4-11.4,23.2-19,37.5-24.4
	c24.4-9.1,44.2-24.5,60-45.1C683.5,321.7,685.1,320,685.4,317.8C685.5,317.7,685.4,317.8,685.4,317.8z"/>
<path class="st1" d="M280.7,737.4c0.8,37.7,13.7,70.5,39.5,98.2c11.7,12.5,25.6,21.8,40.7,29.5c1,0.5,3.3,0.6,2.8,1.9
	c-0.5,1.4-2.6,0.6-3.8,0.3c-8.6-1.9-16.1-6.1-23.6-10.4c-10.4-6-20.1-12.9-28.6-21.6c-8.8-8.9-19-16.1-29.8-22.3
	c-0.5-0.3-1.1-0.6-1.6-1c-1.6-1.3-2.5-3.7-5.2-3.3c0.6,2.1,2.2,3.5,3.6,4.9c12.1,12,22.2,26.1,36.4,36.1c2.7,1.9,5.6,3.5,8.4,5.4
	c0.7,0.5,1.9,0.9,1.4,1.9c-0.1,0.3-1.9,0.2-2.6-0.2c-18-9.4-34-21.4-46.4-37.7c-9.7-12.8-16.8-26.8-21-42.3
	c-0.4-1.5-1.8-3.7-0.6-4.4c1.4-0.9,2.6,1.4,3.6,2.4c10.5,10,22.3,17.9,35.4,24.1c0.9,0.4,1.6,1.5,2.8,0.6c-0.7-0.7-1.3-1.4-2-2
	c-13.4-11.6-26.8-23.2-40.3-34.8c-1.7-1.5-2.5-3.3-2.6-5.4c-1-11-0.9-22,0.7-33c0.3-1.9,0.9-3.3,2.8-4c10.9-4.2,20.9-10.3,30.9-16.3
	c0.9-0.5,1.9-1.8,2.9-1c1,0.8-0.2,2.1-0.2,3.1c-0.1,12.1-6.7,20.8-14.8,28.9c-3.3,3.3-6.1,7-9,10.6c-0.7,0.8-1.5,1.8-1.7,2.8
	c-0.4,1.8-0.8,4.6,0.6,5.4c1.8,1,2.5-1.8,3.4-3c5.4-7,10.6-14.1,15.9-21.1c0.5-0.6,1.3-1.5,1.7-1.4c1.4,0.4,0.4,1.6,0.5,2.4
	C280.7,732.9,280.7,735.2,280.7,737.4z"/>
<path class="st1" d="M445.8,703.7c-8.4-0.8-17.8-4.2-26-10.3c-6.5-4.9-12.7-10.2-18.7-15.7c-2.7-2.4-4.9-2.7-8.1-1.1
	c-8.6,4.3-17.3,8.3-26,12.3c-4.1,1.9-8.3,3.4-12.8,3.7c-8,0.6-12.5-5-10-12.5c2.7-7.9,9.3-12.3,15.7-16.9c1.3-0.9,2.8,0,4.2,0.2
	c25.1,4,49.7,2,73.8-6c2.1-0.7,3.8-1.3,5.6,0.8c8.1,9.3,14.2,19.7,16.1,32C460.9,699.5,456.9,703.9,445.8,703.7z"/>
<path class="st1" d="M84.9,551.6c1.2,0.8,1.3,2.1,1.7,3.3c6.8,23.1,14.9,45.9,18.6,69.9c3.5,22.4,10.7,43.8,16.9,65.4
	c0.3,1.2,1.5,2.7,0.3,3.5c-1,0.7-1.9-0.8-2.7-1.5C81.6,659.6,66.2,602.5,83,555.4C83.5,554.1,83.6,552.5,84.9,551.6z"/>
<path class="st1" d="M542.3,532.6c0.9,0.6,1.7,1.1,2.4,1.7c10.9,10.4,23.6,18.1,37.2,24.3c17.6,8.1,31,21.2,44.5,34.4
	c3.4,3.3,6.7,6.9,10,10.4c0.7,0.8,1.3,1.8,1.9,2.7c-1.5,0.7-2.4-0.6-3.4-1.1c-2.7-1.4-5.3-3-7.8-4.6c-9.4-6-19.1-10.9-30.3-12.7
	c-5.9-1-11.4-3.5-16.1-7.2c-12.2-9.8-26.4-15.5-40.9-20.5c-3.6-1.2-4.2-2.6-3.2-6.1c1.7-5.8,2.7-11.8,4-17.8
	C540.9,534.7,540.8,533.3,542.3,532.6z"/>
<path class="st1" d="M348.1,363.9c-1.9,0.4-2.5-1-3.1-2.2c-4.3-8.5-9.5-16.2-16.3-22.9c-3.2-3.2-5.4-7.2-6.6-11.6
	c-2.6-9.5-8.6-17-14.6-24.5c-1.3-1.6-2.3-3.4-3.4-5.1c2.5-0.7,2.9,1.9,4.3,2.8c10.5,6.7,20,14.8,28.6,23.8c5.1,5.3,8.5,12,12.7,17.9
	c3.9,5.5,8,10.7,13,15.3c0.7,0.6,1.7,1.5,1.6,2.2c-0.1,1.4-1.7,1.1-2.7,1.3C357.1,361.9,352.6,362.9,348.1,363.9z"/>
<path class="st1" d="M110.5,609.5c0.4,0.8,0.8,1.7,1.1,2.5c4.4,11.5,9.2,22.8,13.2,34.4c4.2,12.2,9.7,23.6,16.9,34.3
	c6.6,9.8,12.3,20.2,17.2,31c0.5,1.2,2.2,2.5,1,3.8c-0.9,1-2.3-0.3-3.5-0.8c-15.9-6.1-15.7-6.2-20.9-22.5
	c-5.9-18.8-14.3-36.6-21.5-54.8c-3.3-8.4-3.9-17.1-4.4-25.8C109.6,610.8,109.1,609.9,110.5,609.5z"/>
<path class="st1" d="M656.1,205.8c1.3,1.1,2.4,2.2,3.8,3c22.6,13.5,38.8,32.8,50.1,56.4c0.5,1.1,1.9,2.6,0.9,3.4
	c-1,0.7-1.9-1.2-2.7-2c-10.4-10.4-20.4-21.1-31.3-31c-8.6-7.8-14.7-17.6-20.6-27.5C655.9,207.5,654.7,206.8,656.1,205.8z"/>
<path class="st1" d="M496.8,637.4c-1.4,22-2.8,44-4.2,66c-0.1,1.2-0.4,2.4-0.5,3.6c-0.3-1.2-0.8-2.4-1-3.6
	c-1.8-16.7-3.5-33.4-5.2-50.1c-0.6-5.4-1.1-10.8-1.7-16.2c-0.4-3.8,2.8-9,5.6-9.2C492.2,627.6,497.1,634.2,496.8,637.4z"/>
<path class="st1" d="M269.9,504.9c0-1,0.2-2,0-2.9c-2-9.3,4-15.2,9-21.5c0.3-0.3,0.7-0.8,1-0.8c1,0.1,0.6,1,0.6,1.5
	c-1.3,14-2.1,28-5.2,41.8c-0.2,1-0.4,2.5-1.7,2.6c-1.7,0.1-1.8-1.5-2.2-2.7C269.7,517,269.9,511,269.9,504.9z"/>
<path class="st1" d="M738.8,458.8c-0.8-0.6-1.5-1.1-2.3-1.7c-2.8-2.2-5.5-4.3-8.3-6.5c-0.8-0.7-2.3-1-2.2-2.3c0.1-1.6,1.9-1.5,3-2
	c2.7-1,5.4-1.9,8.1-2.8c4.6-1.5,9.1-2.9,12.9-6c0.6-0.5,1.4-1.1,2.1-0.5c0.3,0.3,0.5,1.2,0.3,1.7c-3,7.2-7.6,13.3-12.3,19.3
	C739.8,458.4,739.3,458.5,738.8,458.8z"/>
<path class="st1" d="M232.2,352.6c0.5-5.5,3.1-10.7,4.6-16.2c0.8-2.8,1.9-0.3,2.3,0.5c2.1,3.8,3.5,7.9,3.8,12.2
	c0.4,5,1.2,9.8,3.1,14.4c0.3,0.8,1.2,1.9,0.4,2.6c-1,1.1-2-0.2-2.9-0.6C238.1,362.9,232.3,360.4,232.2,352.6z"/>
<path class="st1" d="M597.5,709.1c-0.6,1.1-1.1,0.6-1.6,0.4c-11.6-5.3-22.8-11.3-33.3-18.6c-2.5-1.8-2.2-5.2-3.3-7.7
	c-0.2-0.3,0.1-0.9,0.2-1.3c0.6,0.2,1.2,0.4,1.7,0.7c3.9,2.7,7.8,5.5,11.7,8.3c7.7,5.6,15.4,11.2,23,16.8
	C596.4,708.1,597,708.6,597.5,709.1z"/>
<path class="st1" d="M353.2,661.8c-1.1,1.8-2.9,3-4.7,3.9c-1.1,0.6-1.2-0.7-0.9-1.4c0.6-1.5-0.2-3.9,2.4-4
	C351.1,660.1,352.6,660.2,353.2,661.8z"/>
<path class="st1" d="M590.4,691.1c-0.2-0.2-0.4-0.3-0.5-0.5C590.4,690.5,590.6,690.7,590.4,691.1
	C590.3,691.2,590.4,691.1,590.4,691.1z"/>
<path class="st1" d="M362.6,696.6c0.2-0.1,0.5-0.2,0.7-0.2c-0.1,0.2-0.2,0.4-0.3,0.6C362.9,696.9,362.7,696.7,362.6,696.6z"/>
<path class="st0" d="M364.9,590.3c0.6-5.6,1-11.1,1.7-16.7c0.5-4.5,1.5-8.7,5.8-11.5c2.5-1.6,2.7-4.7,2.8-7.4c0.6-12,1.3-24,1.5-36
	c0.1-4.8-3.4-8.9-4.8-13.5c-0.1-0.4-0.7-0.6-1-0.8c-0.3,0.7-0.8,1.4-1,2.2c-1.8,7.6-3.5,15.3-5.2,22.9c-1.2,5.5-2.4,10.9-3.8,16.4
	c-1.1,4.6-2.6,5-6.1,1.7c-10.9-10.6-21.7-21.3-32.6-31.9c-0.7-0.6-1.2-1.8-2.3-1.4c-0.9,0.3-0.4,1.4-0.2,2.1
	c3.4,17.6,3.5,35.6,6.3,53.3c2.8,17.4,7.9,33.6,20.9,46.4c3.3,3.2,5.8,7.3,8.7,10.9c1.5,1.9,1.1,2.7-1.3,2.9
	c-1.9,0.2-3.9,0.2-5.7,0.8c-8.8,3.2-13.4-1.4-17.4-8.4c-6.9-11.8-9.9-24.8-11.7-38c-3.4-25-6.4-50.1-8.2-75.3
	c-0.1-1.9,0.1-3.9-1.4-5.4c-0.6-0.6-0.7-1.3-0.5-2.2c4.1-25.4,6-50.9,5.4-76.6c0-1.8-1-4.8,0.6-5.1c1.8-0.4,2.2,2.6,2.9,4.3
	c7,17.5,9.6,35.4,4.5,54c-1.5,5.5-2.6,11.2-3.9,16.8c-0.6,2.6,0.2,3.4,2.9,2.9c14-2.7,28-5.3,42-7.7c3.2-0.6,2.8-2.2,2.3-4.4
	c-3.4-16.6-2.5-32.8,4.5-48.4c1.8-4.1,3.9-8.1,7-11.4c0.5-0.6,1.5-1.5,1.8-1.3c0.9,0.4,0.2,1.3,0,2c-6.6,20.3-5.4,40.6,0,61
	c2.9,10.9,2.9,22.2,1.6,33.4c-1,8.8,1.9,17.1,2.2,25.7c0.1,3.3,0.5,6.7,0.9,10c0.7,5.6,0.1,10.4-3.5,15.6c-5.4,8-7.1,17.7-7.3,27.5
	c-0.1,3.2-5.5,6.3-8.3,4.9c-1.2-0.6-0.8-1.6-0.7-2.5c0.3-3.8,0.5-7.7,0.8-11.5C365.1,590.3,365,590.3,364.9,590.3z"/>
<path class="st0" d="M450.2,479.1c1.9,26.9-6.3,51.7-15,76.5c-7.9,22.9-19,44.5-27.1,67.4c-1.1,3-3.7,3-5.9,2.9
	c-2.6-0.1-1.8-2.6-1.7-4.2c0-8,2.7-15.4,5.8-22.6c5.6-13.1,9.6-26.7,12.7-40.6c2.6-11.3,7-22.2,10.6-33.2
	c3.8-11.5,6.1-23.2,6.6-35.2c1.3-28.8,1-57.5-5.1-85.9c-1-4.5,2.9-8.2,7.3-6.8c2,0.6,1.7,2.6,2,4c4.8,18.8,7.2,38,8.6,57.3
	C449.7,465.4,449.9,472.3,450.2,479.1z"/>
<path class="st0" d="M414.4,478.7c0.1,26.6-4.9,52.5-12,78c-0.3,1.1,0,2.7-1.7,3c-0.1-1.1-0.4-2.1-0.3-3.2c0.3-8.5,1.1-17,3.1-25.2
	c4.4-18,4-36.1,1.9-54.3c-2.8-24.5-7.2-48.7-14.6-72.3c-1.8-5.7-4.8-10.9-5.8-16.8c-0.4-2.4-1-4.1,2.1-4.3c2.7-0.1,6-3.6,7.7,1.9
	c3.8,12.8,7.8,25.7,12,38.4C412.5,441.7,414.4,460.1,414.4,478.7z"/>
<path class="st0" d="M452.2,565.3c0.5,7.8,0.6,15.7,1.6,23.4c2.2,16.8-1.8,32.7-6.3,48.6c-1.2,4.5-4.8,1.3-7.3,1.6
	c-1.3,0.1-3.8,0-2.8-2.5c4.7-12.5,1.8-25.7,3.1-38.4c1.6-16.2,4.7-32.2,8.3-48.1c0.2-0.9,0-2.7,1.4-2.5c1.4,0.1,0.9,1.8,1.2,2.8
	C452.6,555,452.5,560.2,452.2,565.3z"/>
<path class="st0" d="M337.2,406.1c0-6.4,0-12,0-17.6c0-0.7-0.3-1.9,0.8-1.9c1-0.1,0.9,1.1,1,1.8c1.2,9,2.3,18.1,3.5,27.1
	c0.4,3.2,1.3,6.3,2,9.4c0.2,0.9,0.4,2.1,1.7,1.8c0.3-0.1,0.5-1.3,0.6-2c1.8-11.9,1.9-23.8-0.8-35.7c-0.3-1.2-1.4-3.3,0.5-3.8
	c2.6-0.7,5.4-1.2,8-0.7c2,0.3,0.9,2.7,0.8,4.2c-1.2,20.9-4.3,41.6-8,62.2c-1.5,8.5-1.3,17.2-1.1,25.8c0,0.9-0.1,1.7-0.2,2.6
	c-0.9-0.6-0.9-1.6-1.1-2.5C341.3,453,336.7,429.4,337.2,406.1z"/>
<path class="st0" d="M293.9,624"/>
<path class="st0" d="M744.6,518.1c0.1,8.3-2.1,17.3-3.9,26.4c-1.4,7-1.2,13.9,0.6,20.9c4.9,18.9,1.1,36.7-7.5,53.8
	c-3.8,7.5-8.3,14.6-12.8,21.8c-0.3,0.5-0.9,0.8-1.4,1.2c0-0.6-0.1-1.2,0-1.7c1.1-6.2,2.5-12.4,5.1-18.2c5.8-13,5.5-26.3,3.2-40
	c-2.1-12.6-4.2-25.2-1.1-38.1c0.7-3.1,2.4-5.4,3.6-8.1c5.9-13.3,7.7-27.3,8.3-41.6c0.1-1.4-0.4-3.8,0.6-3.9c1.8-0.1,1.6,2.4,2,3.8
	C743.7,501.7,744.7,509.3,744.6,518.1z"/>
<path class="st0" d="M667.9,660.2c-25.9-4-51.4-9.9-73.8-24.5c-5.2-3.4-9.8-7.7-13.7-12.6c-0.6-0.8-2.1-1.7-1.2-2.7
	c0.8-1,2.1,0.2,3,0.6c15.5,6.7,31,13.5,46.5,20.2c13.2,5.7,26.3,11.4,39.5,17.2c0.7,0.3,1.9,0.5,1.7,1.3
	C669.8,660.8,668.7,660.1,667.9,660.2z"/>
<path class="st0" d="M644.2,527c0.1,0.1,0.2,0.1,0.3,0.2c0,0,0,0.2,0,0.3C644.4,527.3,644.3,527.1,644.2,527
	C644.2,526.9,644.2,527,644.2,527z"/>
<path class="st0" d="M643.2,526c0.3,0.3,0.6,0.7,0.9,1c0,0,0.1-0.1,0.1-0.1C643.5,527,643.1,526.7,643.2,526
	C643.3,525.9,643.2,526,643.2,526z"/>
<path class="st0" d="M512.4,772.8c-0.9-13.6,3-26.6,4.4-39.9c1.4-13.8,0.3-27.4-3.7-40.8c-0.2-0.6-1-1.4,0.1-1.9
	c0.2-0.1,0.9,0.8,1.3,1.3c9.4,13.4,12.7,28.4,11.2,44.6c-1.3,14.9-6.2,29-9.6,43.4c-0.7,3-1.5,5.9-2.3,8.8c-0.1,0.5-0.6,1-0.9,1.5
	c-0.2-0.5-0.5-1.1-0.5-1.6C512.4,783,512.4,777.9,512.4,772.8z"/>
<polygon class="st0" points="365.7,816.9 365.6,816.8 365.8,816.9 "/>
<path class="st0" d="M640.4,289.8c-3.9,0-6.1-3.2-8.7-5.3c-12.3-9.9-25-19.3-35.4-31.3c-6.6-7.6-13.5-14.8-21.4-21.1
	c-12.1-9.6-24.8-18-39.5-23.2c-0.8-0.3-1.9-0.2-2.3-1.3c0.9-0.1,1.8-0.4,2.7-0.4c21.1,0.4,39,8.8,54.7,22.3
	c15.3,13.1,26.3,30,38.8,45.5C633.2,279.8,636.6,284.9,640.4,289.8L640.4,289.8z"/>
<path class="st0" d="M568.1,239c0.3,0,0.5,0,0.8,0c-0.5,0.4-0.9,0.9-1.4,1.3c-9.8,7.7-19.7,15.2-27.5,25c-1.9,2.4-3.7,4.9-4.4,7.8
	c-3.5,15.6-12.8,27.5-23.7,38.5c-16.1,16.2-26.8,35.6-33,57.6c-0.3,1.1-0.6,2.1-1,3.2c-0.2,0.6-0.3,1.5-1.1,1.3
	c-0.3-0.1-0.7-0.9-0.8-1.4c-1.1-6.1-2.2-12.3-3.1-18.4c-0.4-2.7,2-4.2,3.6-6c14.2-16.2,27.4-33.3,39.3-51.3c1.5-2.3,3.1-4.6,3.4-7.3
	c1.3-13.2,9.2-22.1,19-29.8c9.1-7.2,18.8-13.7,28.8-19.7C567.3,239.5,567.7,239.2,568.1,239z"/>
<path class="st0" d="M640.3,289.9c0.2,0.2,0.4,0.3,0.6,0.5C640.2,290.7,640.2,290.3,640.3,289.9
	C640.4,289.8,640.3,289.9,640.3,289.9z"/>
<path class="st0" d="M199.7,285c5.4-9.5,13.6-15.9,22.9-21.1c4.2-2.4,8.6-4.4,13-6.3c7.5-3.2,13.8-7.7,19.3-13.9
	c11.5-13,26.7-18.9,43.6-20.9c5.2-0.6,10.5-1.1,15.7-1.6c0.9-0.1,2.5-0.8,2.8,0.7c0.2,1-1.3,1.1-2.2,1.4c-5.6,1.9-11.1,4.1-16.8,5.7
	c-10.2,2.9-18,9.2-25.4,16.3c-7.5,7.1-14.4,14.9-24.1,19.3c-1.7,0.8-3.4,1.6-5.2,1.9c-13.3,2-25.2,7.5-36.5,14.5
	C204.3,282.5,202,283.7,199.7,285L199.7,285z"/>
<polygon class="st0" points="199.6,285 199.5,285.2 199.7,285 "/>
<path class="st0" d="M745.7,734.3c-1.1,3.7-2.2,7.5-3.5,11.3c-6.7,19.9-15.3,38.8-28.4,55.5c-5.2,6.7-11.9,11.8-19.1,16.2
	c-0.7,0.4-1.5,1.5-2.4,0.7c-0.2-0.2,0.4-1.7,0.9-2.5c11.8-18.8,23.6-37.6,35.4-56.3c5.1-8.2,10.2-16.3,15.3-24.5
	c0.4-0.6,0.7-1.4,1.6-1.5C745.6,733.2,745.6,733.8,745.7,734.3z"/>
<path class="st0" d="M582.9,759.4c3.9,1.8,8.6,3,11.9,5.8c5.9,4.9,12.9,8.1,18.4,13.5c9.2,9,15.8,19.9,22.8,30.6
	c4.9,7.4,8.6,15.7,15.4,21.8c0.6,0.5,1,1.3,1.6,1.7c1.2,0.8,4.1,0.9,3.4,2.4c-0.8,1.8-3.1,0-4.5-0.6c-4.7-2-8-5.7-10.7-9.8
	c-5.9-9.1-11.5-18.5-19.9-25.5c-13.1-10.9-23.2-24.9-36.6-35.5c-1-0.8-1.6-1.9-2.4-2.9C581.6,760.1,581.4,759.5,582.9,759.4z"/>
<polygon class="st0" points="695.9,727.7 696.1,727.7 695.9,727.7 "/>
<path class="st0" d="M854.7,477.5c-0.4,2,0.6,4.3-1.1,4.8c-1.9,0.5-2.1-2-2.8-3.2c-12.7-22.5-22-46.7-35.2-68.8
	c-4.9-8.2-10-16.3-14.9-24.5c-0.4-0.6-0.8-2-0.6-2.1c1.2-0.7,1.5,0.6,2.1,1.1c16.3,18.2,32.8,36.2,43.2,58.7
	C850.3,454.5,852.7,466.1,854.7,477.5z"/>
<path class="st0" d="M199.9,406.9c13.3-0.1,24.2,10.7,24.2,24c0,13.3-10.8,24.2-24,24.2c-11.8-0.1-24.3-8.9-24.2-23.8
	C176,417.9,186.6,407,199.9,406.9z"/>
<path class="st0" d="M572.9,454.3c0,10.6-8.6,19.2-19.1,19.4c-10.8,0.1-19.6-8.5-19.6-19.3c0-10.8,8.9-19.5,19.6-19.4
	C564.3,435,572.9,443.8,572.9,454.3z"/>
</svg>
